<svg width="133" height="40" viewBox="0 0 133 40" fill="none" xmlns="http://www.w3.org/2000/svg">
<path d="M50.077 17.5766C49.2762 17.5766 48.5339 17.4727 47.85 17.265C47.1705 17.0529 46.5991 16.7391 46.136 16.3236C45.6729 15.9037 45.3677 15.3886 45.2206 14.7783L46.2789 14.2784L46.3048 14.2979C46.426 14.7437 46.6554 15.1246 46.993 15.4406C47.335 15.7522 47.7656 15.9903 48.285 16.1548C48.8044 16.3149 49.3888 16.395 50.038 16.395C50.6786 16.395 51.2067 16.3192 51.6222 16.1677C52.0377 16.0162 52.3385 15.8236 52.5247 15.5899C52.7151 15.3518 52.8103 15.0986 52.8103 14.8303C52.8103 14.5273 52.7303 14.2914 52.5701 14.1226C52.4143 13.9495 52.1827 13.811 51.8754 13.7071C51.5681 13.6032 51.1028 13.482 50.4795 13.3435L48.733 12.941C48.0362 12.7895 47.4627 12.599 47.0125 12.3696C46.5667 12.1402 46.2312 11.8545 46.0062 11.5126C45.7811 11.1663 45.6686 10.7508 45.6686 10.266C45.6686 9.7423 45.8352 9.29216 46.1685 8.91559C46.5061 8.53469 46.9779 8.2447 47.5838 8.04559C48.1898 7.84649 48.8932 7.74693 49.6939 7.74693C51.897 7.74693 53.373 8.54768 54.1218 10.1492L53.0116 10.5907C53.0029 10.5863 52.9921 10.5863 52.9791 10.5907C52.9662 10.5907 52.9553 10.5885 52.9467 10.5842C52.661 9.9176 52.2325 9.47395 51.6612 9.2532C51.0898 9.02813 50.4362 8.91559 49.7004 8.91559C49.1334 8.91559 48.6508 8.97402 48.2526 9.09089C47.8587 9.20342 47.5622 9.36141 47.3631 9.56484C47.1683 9.76395 47.0709 9.99551 47.0709 10.2595C47.0709 10.5625 47.1597 10.8092 47.3371 10.9997C47.5189 11.1901 47.7397 11.3373 47.9994 11.4412C48.2634 11.5407 48.5664 11.6251 48.9083 11.6944L51.1482 12.2398C51.8797 12.3956 52.4662 12.5687 52.9077 12.7592C53.3492 12.9453 53.6868 13.1985 53.9206 13.5188C54.1543 13.8391 54.2711 14.2568 54.2711 14.7718C54.2711 15.3432 54.0915 15.8409 53.7323 16.2651C53.3773 16.685 52.8817 17.0096 52.2455 17.239C51.6135 17.4641 50.8907 17.5766 50.077 17.5766ZM58.4079 8.01313H63.2903C64.5585 8.01313 65.5475 8.22955 66.2574 8.66238C66.9716 9.09522 67.3287 9.82887 67.3287 10.8633C67.3287 11.8719 66.9954 12.6315 66.3288 13.1422C65.6622 13.653 64.7338 13.9083 63.5435 13.9083H59.8687V17.3104H58.4079V8.01313ZM63.4526 12.7657C64.1755 12.7657 64.7425 12.6163 65.1537 12.3177C65.5692 12.019 65.7769 11.5429 65.7769 10.8893C65.7769 10.253 65.58 9.80723 65.1861 9.55186C64.7922 9.29216 64.2122 9.16231 63.4461 9.16231H59.8687V12.7657H63.4526ZM77.2762 15.1679H71.3421L70.2968 17.3104H68.7321L73.4716 8.01313H75.1986L79.9317 17.3104H78.328L77.2762 15.1679ZM76.7114 14.0122L74.3027 9.10387L71.9069 14.0122H76.7114ZM83.7438 8.01313H89.2755C90.2926 8.01313 91.1193 8.21873 91.7556 8.62992C92.3962 9.03678 92.7165 9.71633 92.7165 10.6686C92.7165 11.162 92.6105 11.584 92.3984 11.9346C92.1906 12.2809 91.9158 12.5514 91.5738 12.7462C91.2362 12.941 90.8705 13.0643 90.4766 13.1163C90.8532 13.1639 91.2102 13.3435 91.5479 13.6551C91.8855 13.9624 92.1387 14.4256 92.3075 15.0445L92.5996 16.0898C92.6862 16.4058 92.7728 16.6482 92.8593 16.817C92.9459 16.9858 93.0433 17.1503 93.1515 17.3104H91.6193C91.537 17.2065 91.4699 17.0983 91.418 16.9858C91.3704 16.8733 91.3011 16.6525 91.2102 16.3236L90.8921 15.2588C90.7103 14.6398 90.4073 14.1875 89.9832 13.9018C89.5633 13.6162 89.0179 13.4733 88.347 13.4733H85.2047V17.3104H83.7438V8.01313ZM88.8794 12.441C89.5979 12.441 90.1585 12.3133 90.561 12.058C90.9635 11.7983 91.1648 11.333 91.1648 10.6621C91.1648 10.2422 91.0696 9.92193 90.8791 9.70119C90.693 9.48044 90.4506 9.33544 90.152 9.26619C89.8533 9.1926 89.4941 9.15581 89.0742 9.15581H85.2047V12.441H88.8794ZM100.041 9.23372H95.9443V8.01313H105.605V9.23372H101.521V17.3104H100.041V9.23372ZM115.248 15.1679H109.313L108.268 17.3104H106.703L111.443 8.01313H113.17L117.903 17.3104H116.299L115.248 15.1679ZM114.683 14.0122L112.274 9.10387L109.878 14.0122H114.683ZM121.715 8.01313H123.267L129.461 14.9991L130.006 15.5639L129.954 14.9147V8.01313H131.311V17.3104H129.785L123.559 10.3245L123.033 9.75962L123.059 10.4089V17.3104H121.715V8.01313Z" fill="#262626"/>
<path d="M45.1232 20.6866H46.7009L49.1421 27.8543L49.3368 28.4646L52.1546 20.6866H53.7517L56.576 28.4646L56.7773 27.8543L59.2249 20.6866H60.7182L57.3811 29.9839H55.7385L53.1674 22.9849L52.9142 22.2123L52.6675 22.9914L50.09 29.9839H48.4538L45.1232 20.6866ZM68.5612 27.8414H62.627L61.5817 29.9839H60.017L64.7566 20.6866H66.4836L71.2166 29.9839H69.613L68.5612 27.8414ZM67.9963 26.6857L65.5876 21.7773L63.1919 26.6857H67.9963ZM74.0928 26.5688L69.6974 20.6866H71.4049L74.8525 25.5105L78.326 20.6866H79.988L75.5926 26.5688V29.9839H74.0928V26.5688ZM81.3904 20.6866H86.2728C87.541 20.6866 88.53 20.903 89.2399 21.3358C89.9541 21.7687 90.3112 22.5023 90.3112 23.5368C90.3112 24.5453 89.9779 25.3049 89.3113 25.8157C88.6447 26.3264 87.7163 26.5818 86.526 26.5818H82.8512V29.9839H81.3904V20.6866ZM86.4351 25.4391C87.158 25.4391 87.725 25.2898 88.1362 24.9911C88.5517 24.6925 88.7594 24.2164 88.7594 23.5628C88.7594 22.9265 88.5625 22.4807 88.1686 22.2253C87.7747 21.9656 87.1947 21.8358 86.4286 21.8358H82.8512V25.4391H86.4351ZM96.9011 30.2501C95.78 30.2501 94.7888 30.0466 93.9275 29.6398C93.0705 29.2329 92.4039 28.6594 91.9278 27.9193C91.456 27.1748 91.2201 26.3134 91.2201 25.3352C91.2201 24.357 91.456 23.4979 91.9278 22.7577C92.3996 22.0132 93.064 21.4376 93.921 21.0307C94.7823 20.6238 95.7779 20.4204 96.9076 20.4204C98.0329 20.4204 99.0241 20.6238 99.8811 21.0307C100.742 21.4376 101.409 22.0132 101.881 22.7577C102.353 23.4979 102.589 24.357 102.589 25.3352C102.589 26.3091 102.353 27.1683 101.881 27.9128C101.409 28.6529 100.742 29.2286 99.8811 29.6398C99.0198 30.0466 98.0264 30.2501 96.9011 30.2501ZM96.9076 28.997C97.7083 28.997 98.4203 28.8542 99.0436 28.5685C99.6712 28.2785 100.16 27.8587 100.511 27.309C100.866 26.7549 101.043 26.097 101.043 25.3352C101.043 24.5734 100.87 23.9177 100.524 23.368C100.182 22.814 99.6993 22.3941 99.0761 22.1085C98.4528 21.8185 97.7299 21.6735 96.9076 21.6735C96.0982 21.6735 95.3797 21.8185 94.752 22.1085C94.1288 22.3985 93.6397 22.8183 93.2847 23.368C92.9341 23.9177 92.7588 24.5734 92.7588 25.3352C92.7588 26.097 92.9341 26.7549 93.2847 27.309C93.6397 27.8587 94.1288 28.2785 94.752 28.5685C95.3797 28.8542 96.0982 28.997 96.9076 28.997ZM106.99 21.8228V28.8477H108.86V29.9839H103.66V28.8477H105.51V21.8228H103.66V20.6866H108.86V21.8228H106.99ZM110.789 20.6866H112.34L118.534 27.6725L119.08 28.2374L119.028 27.5881V20.6866H120.385V29.9839H118.859L112.632 22.9979L112.107 22.4331L112.133 23.0823V29.9839H110.789V20.6866ZM125.968 21.9072H121.871V20.6866H131.532V21.9072H127.448V29.9839H125.968V21.9072Z" fill="#262626"/>
<path d="M20.7065 0.0146015C20.6125 0.0113567 20.5167 0.00811194 20.4161 0.00486717C20.288 0.00162239 20.1549 0 20.0187 0C20.0122 0 20.0057 0 19.9992 0C19.9976 0 19.9943 0 19.9927 0C19.9878 0 19.9846 0 19.9797 0C19.6796 0 19.4038 0.00648956 19.1458 0.0194687C19.0777 0.0227134 19.0112 0.0259582 18.9463 0.0308254C8.40722 0.580815 0 9.32549 0 20.0008C0 30.6761 8.08112 39.0801 18.3298 39.9302C18.3654 39.9367 18.4028 39.94 18.4401 39.94H18.4433C18.9576 39.9789 19.4752 40 19.9992 40C31.0282 40 40 31.0282 40 19.9992C40 8.97019 31.4094 0.389373 20.7065 0.0146015ZM15.9562 4.4275L15.8037 3.83695C15.8783 3.81748 15.9546 3.80126 16.0292 3.78341L16.2677 3.72825L16.3569 4.33016C16.2223 4.36098 16.0892 4.39343 15.9562 4.4275ZM22.7702 5.49016L22.5058 7.27641L21.5031 14.032L19.9813 15.974L18.4595 14.032L17.4569 7.27641L17.1925 5.49665L17.0756 4.71304L16.9994 4.19712L16.5565 1.2103C16.5565 1.2103 17.3174 0.653823 19.9813 0.653823C22.6453 0.653823 23.4062 1.2103 23.4062 1.2103L22.9649 4.18901L22.9276 4.44372L22.8887 4.70493L22.7719 5.49016H22.7702ZM24.0276 35.5076L23.9708 35.592L22.986 37.0765L22.5496 37.7351L21.5226 39.2845L21.6151 38.3598L21.667 37.8325L21.727 37.2306L21.852 35.9781L21.9055 35.446L21.9866 34.638L22.7573 26.896L27.2772 22.376L27.0712 18.883L21.1121 22.3127V27.2626L19.9813 28.7714L18.8505 27.2626V22.3127L12.8915 18.883L12.6855 22.376L17.2054 26.896L17.9744 34.6331L18.0556 35.4427L18.1091 35.9749L18.1497 36.3756L18.1967 36.8412L18.4401 39.2878L18.1967 38.9211L17.7846 38.2997L17.4455 37.7871L16.8323 36.8639L16.4316 36.2604L15.9838 35.5855L15.9027 35.4638L15.5814 34.9803L15.5409 34.9187L14.8286 33.843L10.6331 27.5157C10.6331 27.5157 12.4827 25.3206 10.6331 22.8221V16.6262C10.6331 16.6262 10.6331 10.0961 16.3569 8.12492L17.5478 14.8059L17.5802 14.986L17.7051 15.119L19.5319 17.061L19.9813 17.538L20.4307 17.061L22.2576 15.119L22.3825 14.986L22.4149 14.8059L23.6058 8.12492C29.3295 10.0961 29.3295 16.6262 29.3295 16.6262V22.8221C27.48 25.3206 29.3295 27.5157 29.3295 27.5157L25.1211 33.8625L24.378 34.9819L24.026 35.5125L24.0276 35.5076ZM15.3397 35.7964L15.5328 36.0868C15.5214 36.0836 15.51 36.0803 15.4987 36.0771L15.2748 36.0138L15.3381 35.7964H15.3397ZM0.645711 20.0008C0.645711 10.7126 7.18881 2.95275 15.9173 1.07889C15.901 1.15352 15.8978 1.22977 15.9091 1.30765L16.013 2.00365C15.1904 2.18211 14.3809 2.42385 13.5924 2.7175V2.71426L13.1349 2.89434C13.1284 2.89759 13.1203 2.89921 13.1138 2.90245L13.07 2.9203L13.9525 5.0943L13.7449 5.17542L13.3182 5.36849L12.3415 3.23504C12.1712 3.31292 12.0008 3.38593 11.8353 3.47353L12.8753 5.57615C12.8509 5.58913 12.8266 5.60049 12.8023 5.61347C12.6335 5.70107 12.4632 5.78544 12.2961 5.87467C12.1079 5.98337 11.9197 6.09045 11.7331 6.20077L11.4184 5.67836C11.4849 5.63942 11.553 5.60211 11.6196 5.56317L12.0397 5.32144L11.7915 4.86392L11.3583 5.11377C11.2902 5.15433 11.2204 5.19327 11.1507 5.23383C11.1134 5.25492 11.0793 5.27763 11.0436 5.30034C11.0047 5.32306 10.9657 5.34577 10.9284 5.37173C10.8635 5.41391 10.797 5.45609 10.7321 5.49665C10.724 5.50152 10.7159 5.50639 10.7078 5.51126C10.5001 5.64429 10.2924 5.77733 10.0945 5.92334L10.3946 6.35003C10.5861 6.20726 10.7889 6.07909 10.9901 5.9493L11.3194 6.46198L11.6017 6.90002C11.6715 6.85622 11.738 6.81241 11.8077 6.76861C11.8305 6.75401 11.8548 6.7394 11.8775 6.7248C12.0982 6.59014 12.3237 6.46522 12.5476 6.33543C12.7098 6.24944 12.8737 6.16832 13.0375 6.08234C13.0602 6.07098 13.0846 6.058 13.1073 6.04664C13.2452 5.97201 13.3912 5.91036 13.534 5.84547L13.9461 5.65889L14.1472 5.5794L14.2559 5.53559L14.3663 5.49179C14.6437 5.37497 14.9325 5.28737 15.218 5.1884L15.0574 4.69195C14.84 4.76658 14.6193 4.83634 14.4036 4.91746L13.7692 3.20909C14.5236 2.92679 15.2975 2.69479 16.086 2.52281L16.1882 3.21395L15.9027 3.28047C15.8248 3.29994 15.7469 3.31454 15.6707 3.33563L15.6609 3.33888L15.4208 3.40702L15.3024 3.44109L15.1693 3.4784L14.939 3.5433C14.7783 3.59035 14.6226 3.64875 14.4636 3.70067L14.6307 4.19388C14.7848 4.14358 14.9357 4.0868 15.0915 4.04137L15.3154 3.9781L15.4857 4.56216L15.6317 5.06348C15.7518 5.02616 15.8735 4.99209 15.9951 4.95964C16.1395 4.92071 16.2855 4.88339 16.4332 4.84932L16.55 5.63942C10.0572 7.19367 5.22896 13.0343 5.22896 20.0041C5.22896 25.9225 8.71061 31.0266 13.7368 33.3839L14.5285 34.5796C14.191 34.4547 13.8584 34.3168 13.534 34.1643C13.3295 34.0734 13.13 33.9744 12.9321 33.8739C12.924 33.869 12.9158 33.8657 12.9077 33.8609C12.5784 33.6905 12.2539 33.5088 11.9343 33.3222L11.6634 33.7684C11.8629 33.8852 12.0625 33.9988 12.2653 34.1091L11.3859 35.7088C10.6315 35.2951 9.90793 34.8278 9.22004 34.3119L8.90529 34.7289C9.61265 35.261 10.359 35.7412 11.1345 36.1679V36.1712C11.2951 36.2636 11.4638 36.3431 11.6277 36.4307L12.6952 34.3411C12.8996 34.4466 13.1057 34.5488 13.3166 34.6412L12.3399 36.7747C12.5102 36.8509 12.679 36.9288 12.8509 37.0034L13.7627 34.8376C14.1618 35.0063 14.5691 35.1555 14.9811 35.2902L14.7913 35.8694L14.5723 35.7948C14.4198 35.7412 14.264 35.6942 14.1148 35.6325L13.9315 36.1209C14.0856 36.1858 14.2446 36.2344 14.4036 36.288L14.6307 36.3642L14.8773 36.4486L15.1288 36.52L15.3592 36.5849C15.5198 36.6287 15.6788 36.6806 15.8426 36.7147L15.8702 36.6011L16.2369 37.1527L16.1606 37.4983C15.3202 37.3133 14.4928 37.0716 13.6865 36.7698L13.5031 37.2582C14.3322 37.5697 15.1839 37.8195 16.0487 38.0093C16.1395 38.0304 16.2304 38.0548 16.3212 38.0726L16.55 38.1132L16.5954 38.1213L16.6571 37.7903L17.5997 39.2131C8.0438 38.0272 0.645711 29.8779 0.645711 20.0008ZM22.3565 39.2131L23.0412 38.1813C23.085 38.1732 23.1304 38.1651 23.1742 38.157L23.1499 38.0158L23.9903 36.7471L24.0941 36.7228C24.172 36.7033 24.2498 36.6887 24.3261 36.6676L24.3358 36.6644L24.5759 36.5962L24.6944 36.5622L24.8274 36.5248L25.0578 36.4599C25.2184 36.4129 25.3742 36.3545 25.5332 36.3026L25.3661 35.8094C25.2119 35.8597 25.061 35.9164 24.9053 35.9619L24.6814 36.0251L24.6165 35.8013L24.941 35.3113C25.1584 35.2367 25.3774 35.1669 25.5916 35.0874L26.2259 36.7958C25.4196 37.0959 24.5922 37.3425 23.7502 37.5177L23.8589 38.0272C24.7268 37.8471 25.577 37.594 26.4076 37.2841V37.2874L26.8651 37.1073C26.8716 37.104 26.8797 37.1024 26.8862 37.0992L26.93 37.0813L26.0475 34.9073L26.2551 34.8262L26.6818 34.6331L27.6585 36.7666C27.8288 36.6887 27.9992 36.6157 28.1647 36.5281L27.1247 34.4255C27.1491 34.4125 27.1734 34.4011 27.1977 34.3882C27.3665 34.3005 27.5368 34.2162 27.7039 34.127C27.8921 34.0183 28.0803 33.9112 28.2669 33.8009L28.5816 34.3233C28.5151 34.3622 28.447 34.3995 28.3804 34.4385L27.9603 34.6802L28.2085 35.1377L28.6417 34.8879C28.7098 34.8473 28.7796 34.8084 28.8493 34.7678C28.8866 34.7467 28.9207 34.724 28.958 34.7013C28.997 34.6786 29.0343 34.6559 29.0716 34.6315C29.1365 34.5893 29.2014 34.5488 29.2663 34.5066C29.2744 34.5017 29.2825 34.4952 29.2922 34.4904C29.4999 34.3573 29.7076 34.2243 29.9055 34.0783L29.6054 33.6516C29.4139 33.7944 29.2111 33.9225 29.0099 34.0523L28.3999 33.1016C28.3302 33.1454 28.2636 33.1892 28.1939 33.233C28.1712 33.2476 28.1468 33.2622 28.1241 33.2768C27.9035 33.4115 27.678 33.5364 27.4541 33.6662C27.2918 33.7522 27.128 33.8333 26.9641 33.9193C26.9414 33.9306 26.9171 33.9436 26.8943 33.955C26.7564 34.0296 26.6104 34.0913 26.4677 34.1562L26.0556 34.3427L25.8544 34.4222L25.7457 34.466L25.6354 34.5098C25.564 34.5407 25.4926 34.5682 25.4196 34.5942L26.2081 33.405C31.2651 31.0606 34.7727 25.9404 34.7727 19.9992C34.7727 13.0164 29.9266 7.16609 23.4143 5.62644L23.5311 4.84121C23.5311 4.84121 23.5457 4.84445 23.5522 4.84608C23.6982 4.88177 23.8475 4.90773 23.9919 4.95315L24.1249 4.44859C23.9757 4.40316 23.8215 4.37558 23.6707 4.33827C23.6496 4.3334 23.6285 4.32853 23.6074 4.32367L23.8751 2.5147C24.7041 2.69803 25.5202 2.93815 26.3151 3.23667L26.4985 2.74833C25.6694 2.43683 24.8177 2.18698 23.953 1.99716V1.99554L24.0552 1.30765C24.0665 1.22653 24.0633 1.14703 24.0454 1.06915C32.795 2.92841 39.3575 10.698 39.3575 20.0008C39.3575 29.8925 31.9367 38.0515 22.3581 39.2131H22.3565Z" fill="#262626"/>
<path d="M34.2405 12.5151C34.2065 12.4486 34.174 12.382 34.1383 12.3171L35.7364 11.4459C36.1485 12.2003 36.5103 12.9839 36.8072 13.7919L37.2955 13.6118C36.9889 12.7812 36.6173 11.9732 36.1939 11.1977H36.1988L35.9473 10.758C35.9473 10.7548 35.944 10.7532 35.9424 10.7499L35.9197 10.7094L33.895 11.8937L33.783 11.699C33.7035 11.566 33.6159 11.4362 33.5332 11.3048L35.506 10.0344C35.4038 9.8787 35.3097 9.71808 35.1977 9.5672L33.2639 10.8976C33.1389 10.7191 33.0108 10.5439 32.8875 10.367C32.7528 10.1983 32.6198 10.0247 32.4851 9.85598L32.9588 9.47148C33.0059 9.53313 33.0529 9.59478 33.1016 9.65481C33.2006 9.78298 33.3028 9.9079 33.4001 10.0377L33.8187 9.72619C33.7181 9.59316 33.6127 9.46336 33.5105 9.33195C33.4602 9.2703 33.4099 9.20703 33.3612 9.14538H33.3628C33.3336 9.10482 33.2995 9.0675 33.2687 9.03019C33.2444 9.00098 33.2217 8.97178 33.1973 8.9442C33.1454 8.88417 33.0935 8.82414 33.0416 8.76574C33.0367 8.75925 33.0319 8.75438 33.0254 8.74789C32.8647 8.56132 32.7041 8.37312 32.5305 8.19952L32.1509 8.55645C32.3196 8.72518 32.4754 8.90851 32.6311 9.08859L32.1704 9.48608L31.7761 9.82678C31.8313 9.89168 31.8881 9.95495 31.9432 10.0198C31.9595 10.0393 31.9757 10.0588 31.9919 10.0783C32.1558 10.2762 32.3099 10.4822 32.4705 10.6818C32.6133 10.8862 32.7625 11.0874 32.9021 11.2934C32.9199 11.3194 32.9378 11.347 32.9556 11.3729C33.001 11.4443 33.0465 11.5173 33.0935 11.5887C33.1746 11.7169 33.259 11.8418 33.3369 11.97L33.4439 12.1582L33.5007 12.2571L33.5608 12.3626L33.6743 12.5589C33.7116 12.6254 33.7441 12.6935 33.7782 12.7601L33.9842 13.1624L34.4531 12.9337L34.2405 12.5183V12.5151Z" fill="#262626"/>
<path d="M34.7971 15.1645L34.8652 15.3673C34.8895 15.45 34.9122 15.5327 34.9366 15.6155L35.0599 16.0503C35.0794 16.1201 35.0956 16.1898 35.1118 16.2596L35.1459 16.4056C35.1524 16.4332 35.1588 16.4608 35.1653 16.4883C35.1718 16.5143 35.1767 16.5403 35.1832 16.5662L35.2189 16.7171C35.2351 16.7869 35.2513 16.8582 35.2643 16.928L35.3438 17.3725L35.8581 17.2849L35.7754 16.8242C35.7624 16.7512 35.7462 16.6782 35.7283 16.6051L37.5129 16.2223C37.5324 16.3099 37.5519 16.3991 37.5697 16.4883L37.7044 17.246L37.8033 18.0085C37.8212 18.1351 37.8309 18.2632 37.8407 18.3914L37.8699 18.7743L38.3906 18.7386L38.3598 18.3444C38.3501 18.2129 38.3404 18.0815 38.3209 17.9501L38.2203 17.1649L38.0808 16.3845C38.0629 16.2937 38.0435 16.2012 38.0224 16.1103V16.1022L37.9623 15.8475C37.9477 15.7842 37.9331 15.7209 37.9185 15.6577C37.9153 15.6415 37.9104 15.6268 37.9072 15.6106L37.8974 15.5652L35.6196 16.1265C35.6034 16.0535 35.5855 15.9822 35.5661 15.9091L35.4379 15.4597L37.6898 14.7994L37.6135 14.5301L37.5259 14.264L35.2951 14.9925L35.2692 14.9162C35.2059 14.7378 35.1524 14.5561 35.0826 14.3792L34.8733 13.8503C34.8636 13.8244 34.8538 13.8 34.8425 13.7757L35.399 13.5421C35.4914 13.7627 35.5807 13.985 35.6667 14.2073L36.155 14.0272C36.0658 13.7968 35.9733 13.568 35.8792 13.3409H35.8841C35.8175 13.1787 35.7413 13.0213 35.6715 12.8623C35.5693 12.6384 35.4639 12.4145 35.3503 12.1955L34.8863 12.4324C34.9966 12.6449 35.0988 12.8607 35.1978 13.0781L34.1692 13.5469C34.2 13.6151 34.2308 13.6832 34.2617 13.7514C34.2941 13.8211 34.3249 13.8893 34.3541 13.9607C34.3671 13.9915 34.3801 14.0207 34.3915 14.0515L34.5926 14.5642C34.6592 14.7345 34.7127 14.9114 34.7727 15.085L34.7987 15.1596L34.7971 15.1645Z" fill="#262626"/>
<path d="M31.3931 8.65056L32.6862 7.36238C33.293 7.97078 33.8576 8.62298 34.3735 9.31087L34.792 8.99937C34.2615 8.29039 33.6807 7.62034 33.0561 6.9941L33.0593 6.99086C32.9474 6.87891 32.8306 6.77021 32.7154 6.66151C32.7073 6.6534 32.6975 6.64529 32.6894 6.63555C32.6781 6.6242 32.6667 6.61446 32.6554 6.6031L31.0443 8.30823C30.8772 8.14924 30.7085 7.99349 30.5317 7.84423L32.0697 6.07096C31.9269 5.9509 31.7906 5.82436 31.6446 5.70917L30.1601 7.52949C29.9914 7.39321 29.8194 7.26017 29.6491 7.12551L29.1851 6.79455C29.1624 6.77832 29.1413 6.76372 29.1186 6.7475L29.4641 6.24618C29.5274 6.29161 29.589 6.33703 29.6523 6.38084C29.7837 6.47656 29.9184 6.56579 30.0466 6.66476L30.3613 6.2478C30.2299 6.14559 30.0904 6.05311 29.9557 5.95415C29.8908 5.90872 29.8259 5.86167 29.761 5.81625C29.7026 5.77244 29.6426 5.7335 29.5826 5.69294C29.5696 5.68483 29.5582 5.67672 29.5469 5.66861L29.3327 5.53233C29.3327 5.53233 29.3295 5.52908 29.3262 5.52908L29.125 5.39929L28.9141 5.26463L28.6967 5.13971L28.4323 5.58911L28.6432 5.71079L28.8476 5.84058L29.0423 5.96551L28.713 6.47656L28.4307 6.9146C28.4972 6.95841 28.5653 7.00059 28.6318 7.04277C28.6967 7.08495 28.7616 7.12876 28.8249 7.17419C28.846 7.18879 28.8671 7.20501 28.8882 7.21961L29.336 7.53922C29.5388 7.69984 29.7432 7.85721 29.9427 8.02107C29.9638 8.0373 29.9833 8.05514 30.0044 8.07299C30.066 8.12653 30.1277 8.18169 30.191 8.23523C30.3613 8.37962 30.5252 8.5305 30.6874 8.68463C30.7539 8.7479 30.8188 8.81118 30.8853 8.87445C31.0914 9.07725 31.2926 9.28654 31.4905 9.49582L31.875 9.14377C31.7176 8.97666 31.557 8.81118 31.3948 8.64731L31.3931 8.65056Z" fill="#262626"/>
<path d="M28.6141 4.29772C29.3685 4.71143 30.0921 5.17868 30.78 5.69459L31.0947 5.27764C30.3874 4.7455 29.6411 4.26527 28.8656 3.83858V3.83534C28.7049 3.74286 28.5362 3.66336 28.3724 3.57576L27.3048 5.66539C27.1004 5.55994 26.8944 5.45773 26.6835 5.36525L27.6601 3.23181C27.4898 3.15556 27.3211 3.07768 27.1491 3.00305L26.2373 5.16894C25.8382 5.00021 25.431 4.85095 25.0189 4.71629L25.2087 4.1371L25.4277 4.21173C25.5802 4.26527 25.736 4.31232 25.8852 4.37397L26.0686 3.88563C25.9144 3.82074 25.7554 3.77206 25.5965 3.71853L25.3693 3.64227L25.1227 3.55791L24.8712 3.48652L24.6409 3.42163C24.4803 3.37782 24.3213 3.32591 24.1574 3.29184L24.0325 3.79802C24.1915 3.83047 24.3456 3.88076 24.5013 3.92295L24.7252 3.98622L24.5533 4.57028L24.4056 5.06998C25.1081 5.27926 25.8009 5.52911 26.4661 5.84061C26.6705 5.93146 26.87 6.03043 27.068 6.13102C27.0761 6.13588 27.0858 6.13913 27.0939 6.144C27.4233 6.31435 27.7461 6.49605 28.0657 6.68263L28.3367 6.23647C28.1371 6.11966 27.9376 6.00609 27.7348 5.89577L28.6141 4.2961V4.29772Z" fill="#262626"/>
<path d="M8.63273 8.6181C8.48347 8.77547 8.33259 8.93122 8.18333 9.09022L7.73555 8.67651C7.78909 8.62135 7.84425 8.56619 7.89617 8.5094C8.00811 8.39259 8.11681 8.27416 8.232 8.16059L7.86372 7.79068C7.74529 7.9075 7.63172 8.0308 7.51653 8.15085C7.46299 8.20926 7.40783 8.26767 7.35267 8.32445C7.31211 8.36501 7.27479 8.40719 7.23586 8.451C7.21639 8.47371 7.1953 8.49318 7.17583 8.51589C7.12878 8.57105 7.08173 8.62621 7.03468 8.67975C7.02494 8.69111 7.01521 8.70247 7.00548 8.71382C6.84324 8.9004 6.67938 9.08535 6.53174 9.28166L6.93896 9.60614C7.08173 9.41469 7.24072 9.23623 7.39809 9.05615L8.24985 9.79758C8.30663 9.73431 8.36179 9.66779 8.41858 9.60289C8.43967 9.58018 8.46076 9.55747 8.48185 9.53475C8.65058 9.3498 8.82742 9.17134 8.99939 8.98963C9.18759 8.81441 9.3693 8.6327 9.56074 8.46073C9.57859 8.44451 9.59805 8.42666 9.61752 8.41044C9.68242 8.35527 9.74731 8.30011 9.81059 8.24333C9.92578 8.14599 10.0361 8.04215 10.1545 7.94968L10.3249 7.81664L10.6964 7.52461L10.8733 7.39969L11.2415 7.13686L10.9479 6.70531L10.5666 6.97624L10.3849 7.10603L9.29629 5.64751C9.98418 5.13321 10.7094 4.66596 11.4638 4.25225L11.2156 3.79474C10.4385 4.2198 9.69215 4.70003 8.98479 5.23055L8.98155 5.22569L8.59217 5.5307C8.59217 5.5307 8.58244 5.53718 8.57757 5.54205L8.54026 5.57125L10.0004 7.4078L9.82519 7.5457C9.70351 7.64305 9.58832 7.7485 9.46989 7.84909L7.93186 6.07582C7.79233 6.19912 7.64632 6.31593 7.51328 6.44572L9.10485 8.17194C8.94585 8.31958 8.79173 8.47209 8.63273 8.61972V8.6181Z" fill="#262626"/>
<path d="M5.88434 12.2815C5.79349 12.447 5.71074 12.6189 5.62314 12.786L5.58582 12.8591L5.0407 12.5881C5.07639 12.52 5.11208 12.4502 5.14615 12.3821C5.22241 12.2393 5.28892 12.0917 5.37167 11.9521L4.91577 11.7007C4.83141 11.8434 4.76165 11.9959 4.68377 12.1436C4.60914 12.2928 4.52965 12.4389 4.45826 12.5897L4.35767 12.812C4.35767 12.812 4.35281 12.8217 4.35118 12.8266L4.25222 13.044L4.14838 13.2728C4.11594 13.349 4.08673 13.4269 4.05591 13.5048L4.53938 13.7011C4.57021 13.6264 4.59779 13.5502 4.63023 13.4756L4.73082 13.2549L4.82654 13.044L5.85352 13.5145C5.91517 13.3766 5.97682 13.2387 6.0482 13.104L6.09201 13.018C6.17637 12.8558 6.25587 12.6903 6.3451 12.5297C6.47489 12.3058 6.60144 12.0787 6.73772 11.858C6.7945 11.7656 6.85128 11.6747 6.91131 11.5855C7.02975 11.3957 7.15629 11.2123 7.28446 11.0306C7.30393 11.003 7.32502 10.9738 7.34449 10.9463C7.54729 10.6656 7.7582 10.3914 7.97398 10.1205L7.57162 9.78949C7.42885 9.96958 7.28771 10.1513 7.14818 10.3362L5.68965 9.23788C6.2072 8.54999 6.77179 7.89941 7.38018 7.29263L7.0119 6.92273C6.38566 7.54735 5.80484 8.2174 5.2727 8.92476L5.26945 8.92151C5.15751 9.07077 5.05205 9.22328 4.94335 9.37578L6.8594 10.7289C6.72636 10.9171 6.59495 11.1069 6.47327 11.3016L4.50044 10.0312C4.40148 10.1886 4.29602 10.3427 4.20192 10.5033L6.21369 11.7153C6.10336 11.9018 5.99629 12.09 5.88759 12.2782L5.88434 12.2815Z" fill="#262626"/>
<path d="M4.16154 17.2087L3.56125 17.1032L3.60181 16.8745L3.644 16.636L3.69916 16.3991L3.18973 16.2872L3.13294 16.5305L3.08914 16.7771L3.04696 17.0124C3.04696 17.0124 3.04696 17.0205 3.04533 17.0237C3.0356 17.0805 3.02587 17.1373 3.01451 17.1941L3.00153 17.2687C3.00153 17.2687 3.00153 17.2736 3.00153 17.2768C2.98693 17.3596 2.97233 17.4423 2.96422 17.5267C2.93015 17.7717 2.90256 18.0166 2.87174 18.26L3.3909 18.3119C3.42173 18.075 3.44931 17.8366 3.48176 17.5997L4.08204 17.6857L4.59796 17.7603C4.69044 17.173 4.79914 16.5873 4.95164 16.013C4.98733 15.8783 5.02465 15.7437 5.06521 15.6106L5.12686 15.3932C5.14795 15.3219 5.17391 15.2505 5.19825 15.1791L5.26801 14.9747C5.28748 14.9195 5.30695 14.8627 5.32479 14.8059C5.33939 14.7621 5.35399 14.7167 5.37022 14.6729C5.37346 14.6615 5.37833 14.6502 5.38157 14.6388C5.38157 14.6388 5.38157 14.6388 5.38157 14.6372C5.39455 14.6015 5.40916 14.5642 5.42376 14.5301C5.45134 14.4636 5.47892 14.3971 5.50325 14.329C5.56004 14.1894 5.61195 14.0483 5.67036 13.9088L5.19013 13.7043C5.1301 13.8487 5.07494 13.9947 5.01654 14.1391C4.99058 14.2089 4.96138 14.277 4.9338 14.3468L3.22866 13.7076C3.53043 12.9029 3.8906 12.1176 4.30431 11.3632L3.84842 11.1118C3.42173 11.8873 3.05345 12.6952 2.74195 13.5242H2.7387C2.67381 13.6784 2.62514 13.839 2.56997 13.998C2.56997 14.0012 2.56835 14.0045 2.56673 14.0061C2.56186 14.0207 2.557 14.0353 2.55213 14.0499L4.77318 14.8076L4.70179 15.0201C4.67746 15.0947 4.64988 15.1677 4.62879 15.2424L4.56551 15.4679L2.31364 14.8076L2.16113 15.3462L4.43248 15.9367C4.32215 16.3553 4.23455 16.7804 4.15992 17.2087H4.16154Z" fill="#262626"/>
<path d="M3.92779 20.5702C3.93103 20.6643 3.93103 20.7601 3.9359 20.8558L3.95699 21.1397C3.97321 21.3295 3.98295 21.5193 4.00242 21.7075L4.01215 21.7887L3.407 21.8552C3.39726 21.7789 3.38753 21.701 3.38266 21.6248L3.34535 21.1413L2.82456 21.177L2.86188 21.6767C2.87485 21.8438 2.90081 22.0077 2.92028 22.1732C2.943 22.3386 2.96084 22.5041 2.98518 22.6696L3.07279 23.1628L3.58546 23.0671L3.49947 22.5901C3.48812 22.5139 3.47838 22.4376 3.46865 22.3597L4.07056 22.2754L4.58648 22.2024L4.52645 21.7335L4.51671 21.6556C4.49724 21.4723 4.48751 21.289 4.47291 21.1056L4.45182 20.8314C4.44695 20.739 4.44695 20.6481 4.44371 20.5556V20.4761H4.44208L4.4291 20.004C4.44046 19.7039 4.43884 19.4021 4.45668 19.102C4.45668 19.0825 4.45993 19.0614 4.46155 19.042C4.46642 18.9819 4.47129 18.9219 4.47615 18.8619L4.49238 18.6461L4.5086 18.4206L4.53618 18.1967L4.01864 18.1367L3.98944 18.3687L3.97159 18.6023L3.95537 18.8246L2.13505 18.6931C2.19994 17.8365 2.32162 16.9831 2.50495 16.1411L1.99552 16.0292C1.79272 16.9572 1.66293 17.8982 1.60128 18.8456C1.59317 18.9511 1.58506 19.0566 1.58343 19.1636C1.58343 19.1636 1.58343 19.1653 1.58343 19.1669C1.58343 19.1831 1.58343 19.1977 1.58343 19.2139L3.92779 19.3129C3.91967 19.5433 3.91805 19.7736 3.90994 20.004H1.56396L1.57694 20.5621L3.92292 20.4924V20.5735L3.92779 20.5702Z" fill="#262626"/>
<path d="M4.73573 25.0756C4.79901 25.2541 4.85255 25.4358 4.92231 25.6126L5.1316 26.1415C5.14133 26.1675 5.15107 26.1918 5.16242 26.2162L4.60594 26.4498C4.51347 26.2291 4.42424 26.0069 4.33825 25.7846L3.84991 25.9647C3.93914 26.1951 4.03162 26.4238 4.12572 26.651H4.12085C4.18737 26.8132 4.26362 26.9706 4.33338 27.1296C4.43559 27.3535 4.54105 27.5773 4.65461 27.7964L5.11862 27.5595C5.0083 27.347 4.90609 27.1312 4.80712 26.9138L5.83571 26.4449C5.80489 26.3768 5.77406 26.3086 5.74324 26.2405C5.71079 26.1724 5.67996 26.1026 5.65076 26.0328C5.63778 26.002 5.6248 25.9728 5.61345 25.942L5.41227 25.4293C5.34575 25.259 5.29221 25.0821 5.23219 24.9085L5.20623 24.8339L5.13809 24.6311C5.11375 24.5483 5.09104 24.4656 5.0667 24.3829L4.9434 23.9481C4.92393 23.8783 4.90771 23.8085 4.89148 23.7388L4.85741 23.5944C4.85092 23.5652 4.84443 23.5376 4.83794 23.5084C4.83145 23.4824 4.82497 23.4549 4.8201 23.4289L4.78603 23.278C4.7698 23.2083 4.75358 23.1369 4.7406 23.0671L4.6611 22.6226L4.14681 22.7102L4.22955 23.1709C4.24253 23.2439 4.25875 23.317 4.2766 23.39L2.49197 23.7728C2.4725 23.6852 2.45303 23.596 2.43519 23.5068L2.30053 22.7491L2.20156 21.9866C2.18372 21.86 2.17398 21.7319 2.16425 21.6037L2.13504 21.2208L1.61426 21.2565L1.64508 21.6508C1.65482 21.7822 1.66455 21.9136 1.68402 22.045L1.78461 22.8302L1.92413 23.6106C1.94198 23.7015 1.96145 23.7939 1.98254 23.8848V23.8913L2.04257 24.1476C2.05717 24.2109 2.07177 24.2725 2.08637 24.3358C2.08962 24.352 2.09449 24.3683 2.09773 24.3845L2.10746 24.4299L4.3853 23.8686C4.40152 23.9416 4.41937 24.013 4.43884 24.086L4.56701 24.5354L2.31513 25.1957L2.39138 25.465L2.47899 25.7311L4.70978 25.0026L4.73573 25.0789V25.0756Z" fill="#262626"/>
<path d="M7.11424 29.6329C7.2489 29.8016 7.38194 29.9752 7.5166 30.144L7.04286 30.5285C6.99581 30.4668 6.94876 30.4052 6.90009 30.3451C6.80112 30.217 6.69891 30.092 6.60157 29.9623L6.18299 30.2738C6.28358 30.4068 6.38903 30.5366 6.49125 30.668C6.54154 30.7296 6.59183 30.7929 6.64051 30.8546H6.63888C6.66809 30.8951 6.70053 30.9324 6.73298 30.9698C6.75732 30.999 6.78003 31.0298 6.80599 31.0574C6.85791 31.1174 6.90982 31.1758 6.96174 31.2358C6.96661 31.2423 6.97309 31.2488 6.97796 31.2537C7.13858 31.4402 7.2992 31.6284 7.47279 31.802L7.85243 31.4451C7.6837 31.2764 7.52795 31.0931 7.3722 30.913L7.83296 30.5155L8.2272 30.1748C8.17204 30.1099 8.11526 30.0466 8.0601 29.9817C8.04387 29.9623 8.02765 29.9428 8.01142 29.9233C7.84756 29.7254 7.69344 29.521 7.53282 29.3198C7.39005 29.1154 7.24241 28.9142 7.10126 28.7081C7.08342 28.6822 7.06395 28.6546 7.0461 28.6286C7.00068 28.5573 6.95525 28.4843 6.9082 28.4129C6.82708 28.2847 6.74272 28.1598 6.66484 28.0316L6.55776 27.8434L6.50098 27.7461L6.43933 27.639L6.32576 27.4427C6.28845 27.3762 6.256 27.308 6.22193 27.2415L6.01589 26.8392L5.54702 27.0679L5.75955 27.4832C5.79362 27.5498 5.82607 27.6163 5.86176 27.6812L4.26371 28.5524C3.85162 27.798 3.48983 27.0144 3.19293 26.2064L2.70459 26.3865C3.01122 27.2172 3.38275 28.0251 3.80619 28.8006H3.80132L4.05279 29.2403C4.05279 29.2435 4.05604 29.2452 4.05766 29.2484L4.08038 29.289L6.10512 28.1046L6.21706 28.2993C6.29656 28.4323 6.38417 28.5621 6.46691 28.6935L4.49408 29.9639C4.5963 30.1196 4.69039 30.2802 4.80234 30.4311L6.73623 29.1008C6.86115 29.2792 6.98932 29.4544 7.11262 29.6313L7.11424 29.6329Z" fill="#262626"/>
<path d="M10.3525 32.8745L10.8165 33.2055C10.8392 33.2217 10.8603 33.2363 10.8831 33.2525L10.5375 33.7538C10.4742 33.7084 10.4126 33.663 10.3493 33.6192C10.2179 33.5234 10.0832 33.4342 9.95505 33.3352L9.6403 33.7522C9.77172 33.8544 9.91124 33.9469 10.0459 34.0459C10.1108 34.0913 10.1757 34.1383 10.2406 34.1838C10.299 34.2276 10.359 34.2681 10.4207 34.3071C10.432 34.3152 10.4434 34.3233 10.4564 34.3314L10.6705 34.4677C10.6705 34.4677 10.6754 34.4709 10.677 34.4709L10.8782 34.6007L11.0891 34.7354L11.3065 34.8603L11.5709 34.4109L11.36 34.2892L11.1556 34.1594L10.9609 34.0345L11.5742 33.0854C11.5077 33.0416 11.4395 32.9994 11.373 32.9572C11.3081 32.915 11.2432 32.8712 11.18 32.8258C11.1589 32.8112 11.1378 32.795 11.1167 32.7804L10.6689 32.4608C10.4661 32.3002 10.2617 32.1428 10.0621 31.9789C10.041 31.9627 10.0216 31.9449 10.0005 31.9286C9.93882 31.8751 9.87717 31.8199 9.8139 31.7664C9.64355 31.622 9.47969 31.4711 9.31745 31.317C9.25093 31.2537 9.18603 31.1904 9.11952 31.1272C8.91347 30.9244 8.7123 30.7151 8.51437 30.5058L8.12986 30.8579C8.28723 31.025 8.44785 31.1904 8.61009 31.3543L7.31704 32.6425C6.71027 32.0341 6.14568 31.3819 5.62976 30.694L5.21118 31.0055C5.7417 31.7145 6.32252 32.3845 6.94714 33.0108L6.94389 33.014C7.05584 33.126 7.17265 33.2347 7.28784 33.3434C7.29595 33.3515 7.30569 33.3596 7.3138 33.3693C7.32515 33.3807 7.33651 33.3904 7.34787 33.4018L8.9589 31.6966C9.12601 31.8556 9.29473 32.0114 9.47158 32.1606L7.93355 33.9339C8.07632 34.054 8.2126 34.1805 8.35862 34.2957L9.8431 32.4754C10.0118 32.6117 10.1838 32.7447 10.3542 32.8794L10.3525 32.8745Z" fill="#262626"/>
<path d="M31.369 31.3835C31.5183 31.2261 31.6691 31.0704 31.8184 30.9114L32.2662 31.3251C32.2126 31.3802 32.1575 31.4354 32.1056 31.4922C31.9936 31.609 31.8849 31.7274 31.7697 31.841L32.138 32.2109C32.2564 32.0941 32.37 31.9708 32.4852 31.8507C32.5387 31.7923 32.5939 31.7339 32.6491 31.6771C32.6896 31.6382 32.7269 31.5944 32.7643 31.5522C32.7837 31.5295 32.8048 31.5084 32.8243 31.4857C32.8713 31.4305 32.9184 31.3754 32.967 31.3218C32.9768 31.3105 32.9865 31.2991 32.9963 31.2894C33.1585 31.1028 33.3224 30.9179 33.47 30.7215L33.0628 30.3971C32.92 30.5885 32.761 30.767 32.6036 30.9471L31.7519 30.2056C31.6951 30.2689 31.6399 30.3354 31.5832 30.4003C31.5621 30.423 31.541 30.4457 31.5199 30.4685C31.3512 30.6534 31.1743 30.8319 31.0023 31.0136C30.8141 31.1888 30.6324 31.3705 30.4426 31.5425C30.4231 31.5603 30.4053 31.5765 30.3858 31.5944C30.3209 31.6496 30.256 31.7047 30.1928 31.7615C30.0776 31.8588 29.9673 31.9627 29.8488 32.0552L29.6785 32.1882L29.3069 32.4802L29.1301 32.6051L28.7618 32.868L29.0555 33.2995L29.4367 33.0286L29.6184 32.8988L30.7071 34.3573C30.0192 34.8716 29.294 35.3389 28.5396 35.7526L28.7878 36.2101C29.5649 35.785 30.3112 35.3048 31.0186 34.7743L31.0218 34.7791L31.4112 34.4741C31.4112 34.4741 31.4209 34.466 31.4258 34.4628L31.4631 34.4336L30.0029 32.597L30.1782 32.4591C30.2998 32.3618 30.415 32.2563 30.5335 32.1557L32.0715 33.929C32.211 33.8057 32.357 33.6889 32.4901 33.5591L30.8985 31.8329C31.0575 31.6852 31.2116 31.5327 31.3706 31.3851L31.369 31.3835Z" fill="#262626"/>
<path d="M34.1172 27.7185C34.2081 27.553 34.2908 27.381 34.3784 27.2139L34.4157 27.1409L34.9609 27.4118C34.9252 27.48 34.8895 27.5497 34.8554 27.6179C34.7792 27.7607 34.7126 27.9083 34.6299 28.0478L35.0858 28.2993C35.1702 28.1565 35.2399 28.004 35.3178 27.8564C35.3924 27.7071 35.4719 27.5611 35.5433 27.4102L35.6439 27.188C35.6439 27.188 35.6488 27.1782 35.6504 27.1734L35.7493 26.956L35.8532 26.7272C35.8856 26.6509 35.9148 26.5731 35.9457 26.4952L35.4622 26.2989C35.4314 26.3735 35.4038 26.4498 35.3713 26.5244L35.2707 26.745L35.175 26.956L34.148 26.4855C34.0864 26.6234 34.0247 26.7613 33.9534 26.8959L33.9096 26.9819C33.8252 27.1442 33.7457 27.3096 33.6565 27.4703C33.5267 27.6941 33.4001 27.9213 33.2638 28.1419C33.2071 28.2344 33.1503 28.3253 33.0903 28.4145C32.9718 28.6043 32.8453 28.7876 32.7171 28.9693C32.6976 28.9969 32.6765 29.0261 32.6571 29.0537C32.4543 29.3344 32.2434 29.6086 32.0276 29.8795L32.4299 30.2105C32.5727 30.0304 32.7139 29.8487 32.8534 29.6637L34.3119 30.7621C33.7944 31.45 33.2298 32.1006 32.6214 32.7073L32.9897 33.0772C33.6159 32.4526 34.1967 31.7826 34.7289 31.0752L34.7321 31.0784C34.8441 30.9292 34.9495 30.7767 35.0582 30.6242L33.1422 29.2711C33.2752 29.0829 33.4066 28.8931 33.5283 28.6984L35.5011 29.9687C35.6001 29.8114 35.7055 29.6572 35.7996 29.4966L33.7879 28.2847C33.8982 28.0981 34.0053 27.9099 34.114 27.7217L34.1172 27.7185Z" fill="#262626"/>
<path d="M36.0705 20.6919C36.0786 20.4615 36.0802 20.2312 36.0883 20.0008H38.4343L38.4213 19.4427L36.0754 19.5124V19.4313C36.0705 19.3372 36.0705 19.2415 36.0656 19.1458L36.0445 18.8619C36.0283 18.672 36.0186 18.4822 35.9991 18.294L35.9894 18.2129L36.5945 18.1464C36.6043 18.2226 36.614 18.3005 36.6189 18.3768L36.6562 18.8602L37.177 18.8245L37.1396 18.3249C37.1267 18.1577 37.1007 17.9939 37.0812 17.8284C37.0585 17.6629 37.0407 17.4974 37.0163 17.332L36.9287 16.8387L36.4161 16.9345L36.502 17.4114C36.5134 17.4877 36.5231 17.564 36.5329 17.6418L35.931 17.7262L35.415 17.7992L35.4751 18.2681L35.4848 18.3459C35.5043 18.5293 35.514 18.7126 35.5286 18.8959L35.5497 19.1701C35.5546 19.2626 35.5546 19.3534 35.5578 19.4459V19.5254H35.5594L35.5724 19.9975C35.5611 20.2977 35.5627 20.5994 35.5448 20.8996C35.5448 20.9191 35.5416 20.9401 35.54 20.9596C35.5351 21.0196 35.5302 21.0797 35.5254 21.1397L35.5091 21.3555L35.4929 21.581L35.4653 21.8049L35.9829 21.8649L36.0121 21.6329L36.0299 21.3993L36.0461 21.177L37.8665 21.3084C37.8016 22.165 37.6799 23.0184 37.4966 23.8604L38.006 23.9724C38.2088 23.0444 38.3386 22.1034 38.4002 21.1575C38.4083 21.0521 38.4165 20.945 38.4181 20.8396C38.4181 20.8396 38.4181 20.8379 38.4181 20.8363C38.4181 20.8201 38.4181 20.8055 38.4181 20.7893L36.0737 20.6903L36.0705 20.6919Z" fill="#262626"/>
<path d="M35.8401 22.7929L36.4404 22.8984L36.3998 23.1271L36.3577 23.3656L36.3025 23.6025L36.8119 23.7144L36.8687 23.4711L36.9125 23.2245L36.9547 22.9892C36.9547 22.9892 36.9563 22.9795 36.9563 22.9763C36.9661 22.9195 36.9758 22.8643 36.9871 22.8075L37.0001 22.7329C37.0001 22.7329 37.0001 22.728 37.0001 22.7248C37.0147 22.642 37.0293 22.5593 37.0374 22.4749C37.0715 22.23 37.0991 21.985 37.1299 21.7416L36.6108 21.6897C36.5799 21.9266 36.5524 22.1651 36.5199 22.4019L35.9196 22.3159L35.4037 22.2413C35.3112 22.8286 35.2025 23.4143 35.05 23.9886C35.0143 24.1233 34.977 24.2579 34.9364 24.391L34.8748 24.6084C34.8537 24.6798 34.8278 24.7511 34.8034 24.8225L34.7337 25.027C34.7142 25.0821 34.6947 25.1389 34.6769 25.1957C34.6623 25.2395 34.6477 25.2833 34.6314 25.3271C34.6266 25.3385 34.6233 25.3498 34.6201 25.3612C34.6071 25.3985 34.5925 25.4342 34.5779 25.4699C34.5503 25.5364 34.5227 25.6029 34.4984 25.671C34.4416 25.8106 34.3897 25.9517 34.3313 26.0912L34.8115 26.2957C34.8716 26.1513 34.9267 26.0053 34.9851 25.8609C35.0111 25.7911 35.0403 25.723 35.0679 25.6532L36.773 26.2924C36.4712 27.0971 36.1111 27.8824 35.6974 28.6368L36.1532 28.8882C36.5799 28.1127 36.9482 27.3048 37.2597 26.4757H37.263C37.3279 26.3216 37.3765 26.161 37.4317 26.002C37.4317 25.9988 37.4333 25.9955 37.4349 25.9939C37.4398 25.9793 37.4447 25.9647 37.4495 25.9501L35.2285 25.1924L35.2999 24.9799C35.3242 24.9053 35.3518 24.8323 35.3729 24.7576L35.4361 24.5321L37.688 25.1924L37.8405 24.6538L35.5692 24.0633C35.6795 23.6447 35.7671 23.2196 35.8417 22.7913L35.8401 22.7929Z" fill="#262626"/>
</svg>
