<svg width="539" height="342" viewBox="0 0 539 342" fill="none" xmlns="http://www.w3.org/2000/svg">
<line x1="20" y1="310.62" x2="518.465" y2="310.62" stroke="white" stroke-width="1.34176"/>
<path d="M17.8018 296.886C15.1353 296.886 12.6634 296.541 10.386 295.849C8.12312 295.142 6.22054 294.097 4.6783 292.714C3.13606 291.316 2.11991 289.6 1.62985 287.568L5.15394 285.903L5.24043 285.968C5.644 287.453 6.40792 288.721 7.53217 289.773C8.67083 290.811 10.105 291.604 11.8346 292.152C13.5642 292.685 15.51 292.952 17.672 292.952C19.8052 292.952 21.5637 292.699 22.9474 292.195C24.3311 291.69 25.3328 291.049 25.9526 290.271C26.5868 289.478 26.9039 288.635 26.9039 287.741C26.9039 286.732 26.6372 285.947 26.1039 285.384C25.585 284.808 24.8139 284.347 23.7906 284.001C22.7672 283.655 21.2178 283.251 19.1422 282.79L13.3264 281.45C11.0058 280.945 9.09603 280.311 7.59703 279.547C6.11244 278.783 4.9954 277.832 4.2459 276.693C3.4964 275.54 3.12164 274.156 3.12164 272.542C3.12164 270.798 3.67656 269.299 4.7864 268.045C5.91065 266.777 7.48172 265.811 9.49961 265.148C11.5175 264.485 13.8597 264.153 16.5262 264.153C23.8626 264.153 28.7776 266.82 31.2712 272.153L27.5741 273.623C27.5453 273.609 27.5092 273.609 27.466 273.623C27.4228 273.623 27.3867 273.616 27.3579 273.601C26.4066 271.382 24.9797 269.904 23.0771 269.169C21.1745 268.42 18.9981 268.045 16.5478 268.045C14.6596 268.045 13.0525 268.24 11.7265 268.629C10.4149 269.004 9.42754 269.53 8.76452 270.207C8.11591 270.87 7.79161 271.641 7.79161 272.52C7.79161 273.529 8.08709 274.351 8.67804 274.985C9.28341 275.619 10.0185 276.109 10.8833 276.455C11.7625 276.787 12.7715 277.068 13.9101 277.299L21.3691 279.115C23.805 279.633 25.758 280.21 27.2282 280.844C28.6984 281.464 29.8226 282.307 30.6009 283.374C31.3793 284.44 31.7684 285.831 31.7684 287.546C31.7684 289.449 31.1703 291.107 29.974 292.519C28.792 293.917 27.1417 294.998 25.0229 295.762C22.9186 296.512 20.5115 296.886 17.8018 296.886ZM37.1311 265.04H53.3895C57.6127 265.04 60.9061 265.761 63.27 267.202C65.6482 268.643 66.8373 271.086 66.8373 274.531C66.8373 277.889 65.7274 280.419 63.5078 282.12C61.2881 283.821 58.1964 284.671 54.2327 284.671H41.9957V296H37.1311V265.04ZM53.93 280.866C56.3371 280.866 58.2252 280.369 59.5945 279.374C60.9782 278.38 61.6701 276.794 61.6701 274.618C61.6701 272.499 61.0142 271.014 59.7026 270.164C58.391 269.299 56.4596 268.867 53.9084 268.867H41.9957V280.866H53.93ZM91.5501 288.865H71.7892L68.3083 296H63.0979L78.8806 265.04H84.6316L100.393 296H95.0525L91.5501 288.865ZM89.6691 285.017L81.648 268.672L73.6701 285.017H89.6691ZM104.674 265.04H123.095C126.482 265.04 129.235 265.724 131.354 267.094C133.487 268.449 134.554 270.712 134.554 273.883C134.554 275.526 134.2 276.931 133.494 278.098C132.802 279.252 131.887 280.152 130.748 280.801C129.624 281.45 128.406 281.86 127.095 282.033C128.349 282.192 129.538 282.79 130.662 283.828C131.786 284.851 132.629 286.393 133.191 288.455L134.164 291.935C134.453 292.988 134.741 293.795 135.029 294.357C135.317 294.919 135.642 295.467 136.002 296H130.9C130.626 295.654 130.402 295.294 130.229 294.919C130.071 294.544 129.84 293.809 129.538 292.714L128.478 289.168C127.873 287.107 126.864 285.601 125.451 284.649C124.053 283.698 122.237 283.222 120.003 283.222H109.539V296H104.674V265.04ZM121.776 279.785C124.169 279.785 126.035 279.36 127.376 278.509C128.716 277.644 129.386 276.095 129.386 273.861C129.386 272.463 129.069 271.396 128.435 270.661C127.815 269.926 127.008 269.443 126.014 269.213C125.019 268.968 123.823 268.845 122.425 268.845H109.539V279.785H121.776ZM150.532 269.104H136.889V265.04H169.06V269.104H155.461V296H150.532V269.104ZM192.757 288.865H172.996L169.515 296H164.305L180.087 265.04H185.838L201.6 296H196.259L192.757 288.865ZM190.876 285.017L182.855 268.672L174.877 285.017H190.876ZM205.881 265.04H211.048L231.674 288.303L233.49 290.184L233.317 288.022V265.04H237.836V296H232.755L212.021 272.737L210.27 270.856L210.357 273.018V296H205.881V265.04ZM256.474 265.04H261.728L269.857 288.909L270.506 290.941L279.889 265.04H285.208L294.612 290.941L295.283 288.909L303.433 265.04H308.406L297.293 296H291.823L283.262 272.693L282.419 270.121L281.597 272.715L273.014 296H267.565L256.474 265.04ZM333.638 288.865H313.877L310.396 296H305.185L320.968 265.04H326.719L342.48 296H337.14L333.638 288.865ZM331.757 285.017L323.736 268.672L315.758 285.017H331.757ZM351.173 284.628L336.536 265.04H342.222L353.702 281.104L365.269 265.04H370.804L356.167 284.628V296H351.173V284.628ZM374.588 265.04H390.847C395.07 265.04 398.363 265.761 400.727 267.202C403.105 268.643 404.294 271.086 404.294 274.531C404.294 277.889 403.184 280.419 400.965 282.12C398.745 283.821 395.653 284.671 391.69 284.671H379.453V296H374.588V265.04ZM391.387 280.866C393.794 280.866 395.682 280.369 397.052 279.374C398.435 278.38 399.127 276.794 399.127 274.618C399.127 272.499 398.471 271.014 397.16 270.164C395.848 269.299 393.917 268.867 391.365 268.867H379.453V280.866H391.387ZM425.353 296.886C421.62 296.886 418.319 296.209 415.451 294.854C412.597 293.499 410.378 291.589 408.792 289.125C407.221 286.646 406.436 283.777 406.436 280.52C406.436 277.262 407.221 274.401 408.792 271.937C410.363 269.458 412.576 267.541 415.43 266.186C418.298 264.831 421.613 264.153 425.375 264.153C429.122 264.153 432.423 264.831 435.277 266.186C438.145 267.541 440.365 269.458 441.936 271.937C443.507 274.401 444.293 277.262 444.293 280.52C444.293 283.763 443.507 286.624 441.936 289.103C440.365 291.568 438.145 293.485 435.277 294.854C432.409 296.209 429.101 296.886 425.353 296.886ZM425.375 292.714C428.041 292.714 430.412 292.238 432.488 291.287C434.578 290.321 436.207 288.923 437.374 287.092C438.556 285.248 439.147 283.057 439.147 280.52C439.147 277.983 438.57 275.8 437.417 273.969C436.279 272.124 434.672 270.726 432.596 269.775C430.52 268.809 428.113 268.326 425.375 268.326C422.68 268.326 420.287 268.809 418.197 269.775C416.121 270.74 414.493 272.138 413.311 273.969C412.143 275.8 411.56 277.983 411.56 280.52C411.56 283.057 412.143 285.248 413.311 287.092C414.493 288.923 416.121 290.321 418.197 291.287C420.287 292.238 422.68 292.714 425.375 292.714ZM458.065 268.823V292.216H464.292V296H446.974V292.216H453.136V268.823H446.974V265.04H464.292V268.823H458.065ZM469.828 265.04H474.995L495.621 288.303L497.437 290.184L497.264 288.022V265.04H501.782V296H496.702L475.968 272.737L474.217 270.856L474.303 273.018V296H469.828V265.04ZM519.49 269.104H505.848V265.04H538.019V269.104H524.42V296H519.49V269.104Z" fill="white"/>
<path d="M133.926 341.753C132.302 341.753 130.892 341.475 129.696 340.917C128.508 340.36 127.624 339.539 127.042 338.457L129.078 337.681C129.571 338.376 130.217 338.913 131.017 339.293C131.817 339.665 132.835 339.85 134.072 339.85C135.51 339.85 136.556 339.697 137.211 339.39C137.865 339.075 138.193 338.574 138.193 337.887C138.193 337.499 138.047 337.184 137.756 336.942C137.474 336.699 137.013 336.501 136.375 336.348C135.744 336.194 134.856 336.053 133.708 335.923C133.595 335.907 133.502 335.899 133.429 335.899C132.379 335.794 131.458 335.649 130.666 335.463C129.874 335.269 129.167 334.913 128.545 334.396C127.931 333.879 127.624 333.152 127.624 332.215C127.624 331.463 127.846 330.813 128.29 330.263C128.743 329.714 129.413 329.29 130.302 328.991C131.191 328.692 132.286 328.542 133.587 328.542C135.146 328.542 136.512 328.76 137.684 329.197C138.863 329.633 139.849 330.449 140.641 331.645L138.532 332.384C138.007 331.657 137.34 331.144 136.532 330.845C135.732 330.546 134.722 330.397 133.502 330.397C131.288 330.397 130.181 330.999 130.181 332.203C130.181 332.631 130.359 332.962 130.714 333.196C131.07 333.423 131.518 333.584 132.06 333.681C132.609 333.77 133.417 333.867 134.484 333.972C135.93 334.126 137.114 334.356 138.035 334.663C138.964 334.97 139.655 335.378 140.108 335.887C140.568 336.388 140.799 337.01 140.799 337.754C140.799 339.079 140.217 340.077 139.053 340.747C137.898 341.418 136.189 341.753 133.926 341.753ZM154.313 341.753C152.495 341.753 151.126 341.426 150.205 340.772C149.291 340.109 148.835 339.192 148.835 338.02C148.835 336.534 149.639 335.451 151.247 334.772C152.855 334.093 155.041 333.754 157.804 333.754C158.766 333.754 159.768 333.79 160.81 333.863V333.827C160.81 333.245 160.668 332.703 160.386 332.203C160.103 331.702 159.626 331.293 158.955 330.978C158.285 330.655 157.404 330.494 156.313 330.494C155.707 330.494 155.105 330.574 154.507 330.736C153.909 330.889 153.376 331.14 152.907 331.487C152.439 331.827 152.107 332.255 151.913 332.772L149.683 331.863C150.168 330.821 150.996 330.009 152.168 329.427C153.348 328.837 154.806 328.542 156.543 328.542C158.143 328.542 159.448 328.768 160.458 329.221C161.468 329.673 162.212 330.364 162.689 331.293C163.173 332.215 163.416 333.394 163.416 334.833V338.76C163.416 339.107 163.44 339.374 163.488 339.56C163.537 339.745 163.626 339.883 163.755 339.972C163.884 340.053 164.07 340.093 164.313 340.093C164.49 340.093 164.692 340.069 164.919 340.02C165.153 339.972 165.319 339.927 165.416 339.887V341.256C165.262 341.353 164.987 341.458 164.591 341.572C164.204 341.693 163.812 341.753 163.416 341.753C162.624 341.753 162.03 341.572 161.634 341.208C161.238 340.844 161.04 340.238 161.04 339.39C161.04 338.962 161.117 338.275 161.27 337.329L161.343 336.82C161.125 337.879 160.664 338.78 159.961 339.523C159.258 340.267 158.414 340.824 157.428 341.196C156.442 341.568 155.404 341.753 154.313 341.753ZM154.895 339.984C155.994 339.984 156.996 339.749 157.901 339.281C158.806 338.804 159.517 338.21 160.034 337.499C160.551 336.788 160.81 336.101 160.81 335.439C160.422 335.414 159.812 335.386 158.98 335.354C158.753 335.346 158.414 335.342 157.962 335.342C155.942 335.342 154.37 335.528 153.247 335.899C152.132 336.263 151.574 336.929 151.574 337.899C151.574 338.279 151.687 338.626 151.913 338.941C152.148 339.257 152.511 339.511 153.004 339.705C153.505 339.891 154.136 339.984 154.895 339.984ZM174.361 323.815H176.967V341.341H174.361V323.815ZM194.069 341.753C192.469 341.753 191.051 341.499 189.815 340.99C188.579 340.481 187.613 339.741 186.918 338.772C186.223 337.794 185.876 336.622 185.876 335.257C185.876 333.883 186.191 332.691 186.821 331.681C187.452 330.671 188.352 329.896 189.524 329.354C190.704 328.813 192.098 328.542 193.706 328.542C195.168 328.542 196.449 328.833 197.548 329.415C198.655 329.997 199.503 330.784 200.093 331.778C200.691 332.764 200.99 333.859 200.99 335.063V335.778H188.312C188.312 336.505 188.554 337.18 189.039 337.802C189.532 338.416 190.219 338.905 191.1 339.269C191.981 339.632 192.974 339.814 194.081 339.814C195.237 339.814 196.207 339.604 196.99 339.184C197.782 338.764 198.404 338.101 198.857 337.196L198.942 337.208L200.869 338.166C200.15 339.345 199.216 340.238 198.069 340.844C196.922 341.45 195.588 341.753 194.069 341.753ZM198.445 334.045C198.421 333.358 198.223 332.74 197.851 332.19C197.487 331.633 196.95 331.188 196.239 330.857C195.528 330.526 194.667 330.36 193.657 330.36C192.679 330.36 191.795 330.514 191.003 330.821C190.219 331.128 189.593 331.564 189.124 332.13C188.656 332.687 188.393 333.326 188.336 334.045H198.445ZM215.159 341.753C213.535 341.753 212.125 341.475 210.929 340.917C209.741 340.36 208.857 339.539 208.275 338.457L210.311 337.681C210.804 338.376 211.45 338.913 212.25 339.293C213.05 339.665 214.068 339.85 215.305 339.85C216.743 339.85 217.789 339.697 218.444 339.39C219.098 339.075 219.426 338.574 219.426 337.887C219.426 337.499 219.28 337.184 218.989 336.942C218.707 336.699 218.246 336.501 217.608 336.348C216.977 336.194 216.089 336.053 214.941 335.923C214.828 335.907 214.735 335.899 214.662 335.899C213.612 335.794 212.691 335.649 211.899 335.463C211.107 335.269 210.4 334.913 209.778 334.396C209.164 333.879 208.857 333.152 208.857 332.215C208.857 331.463 209.079 330.813 209.523 330.263C209.976 329.714 210.646 329.29 211.535 328.991C212.424 328.692 213.519 328.542 214.82 328.542C216.379 328.542 217.745 328.76 218.917 329.197C220.096 329.633 221.082 330.449 221.874 331.645L219.765 332.384C219.24 331.657 218.573 331.144 217.765 330.845C216.965 330.546 215.955 330.397 214.735 330.397C212.521 330.397 211.414 330.999 211.414 332.203C211.414 332.631 211.592 332.962 211.947 333.196C212.303 333.423 212.751 333.584 213.293 333.681C213.842 333.77 214.65 333.867 215.717 333.972C217.163 334.126 218.347 334.356 219.268 334.663C220.197 334.97 220.888 335.378 221.341 335.887C221.801 336.388 222.032 337.01 222.032 337.754C222.032 339.079 221.45 340.077 220.286 340.747C219.131 341.418 217.422 341.753 215.159 341.753ZM250.673 341.753C249.049 341.753 247.639 341.475 246.443 340.917C245.255 340.36 244.371 339.539 243.789 338.457L245.825 337.681C246.318 338.376 246.964 338.913 247.764 339.293C248.564 339.665 249.582 339.85 250.819 339.85C252.257 339.85 253.303 339.697 253.958 339.39C254.612 339.075 254.94 338.574 254.94 337.887C254.94 337.499 254.794 337.184 254.503 336.942C254.22 336.699 253.76 336.501 253.121 336.348C252.491 336.194 251.602 336.053 250.455 335.923C250.342 335.907 250.249 335.899 250.176 335.899C249.126 335.794 248.205 335.649 247.413 335.463C246.621 335.269 245.914 334.913 245.292 334.396C244.678 333.879 244.371 333.152 244.371 332.215C244.371 331.463 244.593 330.813 245.037 330.263C245.49 329.714 246.16 329.29 247.049 328.991C247.938 328.692 249.033 328.542 250.334 328.542C251.893 328.542 253.259 328.76 254.43 329.197C255.61 329.633 256.596 330.449 257.388 331.645L255.279 332.384C254.754 331.657 254.087 331.144 253.279 330.845C252.479 330.546 251.469 330.397 250.249 330.397C248.035 330.397 246.928 330.999 246.928 332.203C246.928 332.631 247.106 332.962 247.461 333.196C247.817 333.423 248.265 333.584 248.807 333.681C249.356 333.77 250.164 333.867 251.231 333.972C252.677 334.126 253.861 334.356 254.782 334.663C255.711 334.97 256.402 335.378 256.855 335.887C257.315 336.388 257.545 337.01 257.545 337.754C257.545 339.079 256.964 340.077 255.8 340.747C254.645 341.418 252.936 341.753 250.673 341.753ZM273.23 341.753C271.727 341.753 270.357 341.491 269.121 340.966C267.885 340.44 266.903 339.681 266.176 338.687C265.456 337.685 265.097 336.505 265.097 335.148C265.097 333.79 265.461 332.615 266.188 331.621C266.915 330.619 267.897 329.855 269.133 329.33C270.369 328.805 271.735 328.542 273.23 328.542C274.733 328.542 276.102 328.805 277.339 329.33C278.583 329.855 279.565 330.615 280.284 331.609C281.011 332.602 281.375 333.77 281.375 335.111C281.375 336.477 281.015 337.661 280.296 338.663C279.577 339.665 278.599 340.432 277.363 340.966C276.126 341.491 274.749 341.753 273.23 341.753ZM273.23 339.766C274.264 339.766 275.189 339.588 276.005 339.232C276.829 338.869 277.476 338.339 277.945 337.645C278.413 336.942 278.648 336.101 278.648 335.124C278.648 334.17 278.413 333.346 277.945 332.651C277.476 331.956 276.829 331.431 276.005 331.075C275.189 330.712 274.264 330.53 273.23 330.53C272.187 330.53 271.258 330.712 270.442 331.075C269.626 331.431 268.984 331.956 268.515 332.651C268.046 333.346 267.812 334.178 267.812 335.148C267.812 336.109 268.046 336.938 268.515 337.632C268.992 338.327 269.638 338.857 270.454 339.22C271.278 339.584 272.204 339.766 273.23 339.766ZM290.272 330.506H287.896V328.966H289.944C289.839 328.288 289.787 327.71 289.787 327.233C289.787 326.466 289.973 325.783 290.344 325.185C290.724 324.579 291.257 324.106 291.944 323.767C292.631 323.427 293.427 323.258 294.332 323.258C295.382 323.258 296.223 323.443 296.853 323.815C297.491 324.179 297.944 324.607 298.21 325.1C298.477 325.593 298.635 326.066 298.683 326.518L296.768 327.039C296.655 326.522 296.433 326.078 296.101 325.706C295.77 325.334 295.221 325.148 294.453 325.148C293.839 325.148 293.318 325.326 292.89 325.682C292.469 326.037 292.259 326.575 292.259 327.294C292.259 327.859 292.308 328.417 292.405 328.966H297.907V330.506H292.841V341.341H290.272V330.506ZM310.896 341.753C309.183 341.753 307.951 341.281 307.199 340.335C306.456 339.39 306.084 337.988 306.084 336.13V330.506H303.163V328.966H305.09C305.632 328.966 305.999 328.857 306.193 328.639C306.387 328.413 306.484 328.041 306.484 327.524V324.991H308.775V328.966H313.829V330.506H308.775V336.275C308.775 337.14 308.868 337.826 309.054 338.335C309.24 338.845 309.518 339.212 309.89 339.438C310.27 339.665 310.759 339.778 311.357 339.778C312.132 339.778 312.718 339.471 313.114 338.857C313.518 338.234 313.801 337.54 313.963 336.772L315.781 337.414C315.522 338.537 315.021 339.543 314.278 340.432C313.534 341.313 312.407 341.753 310.896 341.753ZM321.781 328.966H324.544L328.023 338.057L328.35 339.135L328.689 338.057L331.962 330.53H334.628L338.083 338.057L338.422 339.135L338.749 338.069L342.24 328.966H344.834L339.78 341.341H337.065L333.756 333.996L333.222 332.469L332.677 333.996L329.538 341.341H326.835L321.781 328.966ZM357.452 341.753C355.634 341.753 354.264 341.426 353.343 340.772C352.43 340.109 351.973 339.192 351.973 338.02C351.973 336.534 352.777 335.451 354.385 334.772C355.993 334.093 358.179 333.754 360.942 333.754C361.904 333.754 362.906 333.79 363.948 333.863V333.827C363.948 333.245 363.807 332.703 363.524 332.203C363.241 331.702 362.764 331.293 362.094 330.978C361.423 330.655 360.542 330.494 359.451 330.494C358.845 330.494 358.243 330.574 357.646 330.736C357.048 330.889 356.514 331.14 356.046 331.487C355.577 331.827 355.246 332.255 355.052 332.772L352.822 331.863C353.306 330.821 354.135 330.009 355.306 329.427C356.486 328.837 357.944 328.542 359.682 328.542C361.282 328.542 362.587 328.768 363.597 329.221C364.607 329.673 365.35 330.364 365.827 331.293C366.312 332.215 366.554 333.394 366.554 334.833V338.76C366.554 339.107 366.578 339.374 366.627 339.56C366.675 339.745 366.764 339.883 366.893 339.972C367.023 340.053 367.209 340.093 367.451 340.093C367.629 340.093 367.831 340.069 368.057 340.02C368.291 339.972 368.457 339.927 368.554 339.887V341.256C368.4 341.353 368.126 341.458 367.73 341.572C367.342 341.693 366.95 341.753 366.554 341.753C365.762 341.753 365.168 341.572 364.772 341.208C364.376 340.844 364.178 340.238 364.178 339.39C364.178 338.962 364.255 338.275 364.409 337.329L364.481 336.82C364.263 337.879 363.803 338.78 363.1 339.523C362.397 340.267 361.552 340.824 360.567 341.196C359.581 341.568 358.542 341.753 357.452 341.753ZM358.033 339.984C359.132 339.984 360.134 339.749 361.039 339.281C361.944 338.804 362.655 338.21 363.172 337.499C363.69 336.788 363.948 336.101 363.948 335.439C363.56 335.414 362.95 335.386 362.118 335.354C361.892 335.346 361.552 335.342 361.1 335.342C359.08 335.342 357.508 335.528 356.385 335.899C355.27 336.263 354.712 336.929 354.712 337.899C354.712 338.279 354.826 338.626 355.052 338.941C355.286 339.257 355.65 339.511 356.143 339.705C356.644 339.891 357.274 339.984 358.033 339.984ZM377.463 328.966H379.39L379.887 332.615C380.065 331.879 380.408 331.201 380.917 330.578C381.434 329.956 382.052 329.463 382.772 329.1C383.491 328.728 384.238 328.542 385.014 328.542C386.759 328.542 388.016 328.966 388.783 329.815C389.559 330.663 389.947 331.847 389.947 333.366C389.947 333.859 389.911 334.38 389.838 334.93L387.765 335.22C387.781 334.816 387.789 334.53 387.789 334.36C387.789 333.52 387.688 332.825 387.486 332.275C387.293 331.718 386.957 331.293 386.48 331.003C386.012 330.704 385.373 330.554 384.565 330.554C383.612 330.554 382.796 330.841 382.117 331.415C381.438 331.98 380.929 332.671 380.59 333.487C380.251 334.303 380.081 335.067 380.081 335.778V341.341H377.463V328.966ZM404.892 341.753C403.292 341.753 401.874 341.499 400.638 340.99C399.401 340.481 398.436 339.741 397.741 338.772C397.046 337.794 396.698 336.622 396.698 335.257C396.698 333.883 397.014 332.691 397.644 331.681C398.274 330.671 399.175 329.896 400.347 329.354C401.526 328.813 402.92 328.542 404.528 328.542C405.991 328.542 407.272 328.833 408.37 329.415C409.477 329.997 410.326 330.784 410.916 331.778C411.514 332.764 411.813 333.859 411.813 335.063V335.778H399.135C399.135 336.505 399.377 337.18 399.862 337.802C400.355 338.416 401.042 338.905 401.922 339.269C402.803 339.632 403.797 339.814 404.904 339.814C406.059 339.814 407.029 339.604 407.813 339.184C408.605 338.764 409.227 338.101 409.679 337.196L409.764 337.208L411.691 338.166C410.972 339.345 410.039 340.238 408.892 340.844C407.744 341.45 406.411 341.753 404.892 341.753ZM409.267 334.045C409.243 333.358 409.045 332.74 408.673 332.19C408.31 331.633 407.773 331.188 407.061 330.857C406.35 330.526 405.49 330.36 404.48 330.36C403.502 330.36 402.617 330.514 401.825 330.821C401.042 331.128 400.415 331.564 399.947 332.13C399.478 332.687 399.215 333.326 399.159 334.045H409.267Z" fill="white"/>
<path d="M273.681 0.090741C273.096 0.0705764 272.501 0.0504117 271.876 0.030247C271.08 0.0100823 270.253 0 269.406 0C269.366 0 269.325 0 269.285 0C269.275 0 269.255 0 269.245 0C269.214 0 269.194 0 269.164 0C267.299 0 265.585 0.0403293 263.982 0.120988C263.558 0.141153 263.145 0.161317 262.742 0.191564C197.247 3.60948 145 57.9533 145 124.295C145 190.637 195.22 242.863 258.91 248.146C259.132 248.187 259.364 248.207 259.596 248.207H259.616C262.812 248.449 266.028 248.58 269.285 248.58C337.825 248.58 393.58 192.825 393.58 124.285C393.58 55.7452 340.194 2.41976 273.681 0.090741ZM244.16 27.5147L243.212 23.8447C243.676 23.7237 244.15 23.6229 244.613 23.512L246.096 23.1692L246.65 26.9098C245.813 27.1013 244.987 27.303 244.16 27.5147ZM286.506 34.1186L284.862 45.2193L278.631 87.2021L269.174 99.2707L259.717 87.2021L253.486 45.2193L251.843 34.159L251.117 29.2892L250.643 26.083L247.89 7.52142C247.89 7.52142 252.619 4.06318 269.174 4.06318C285.729 4.06318 290.458 7.52142 290.458 7.52142L287.715 26.0326L287.484 27.6155L287.242 29.2388L286.516 34.1186H286.506ZM294.319 220.662L293.967 221.186L287.847 230.412L285.134 234.505L278.752 244.134L279.327 238.387L279.65 235.11L280.023 231.369L280.799 223.586L281.132 220.279L281.636 215.258L286.425 167.145L314.514 139.056L313.234 117.348L276.201 138.662V169.424L269.174 178.8L262.147 169.424V138.662L225.114 117.348L223.834 139.056L251.923 167.145L256.702 215.228L257.206 220.259L257.539 223.566L257.791 226.056L258.083 228.95L259.596 244.154L258.083 241.875L255.523 238.014L253.415 234.828L249.604 229.091L247.114 225.34L244.331 221.146L243.827 220.39L241.831 217.385L241.579 217.002L237.153 210.318L211.08 170.996C211.08 170.996 222.573 157.355 211.08 141.828V103.324C211.08 103.324 211.08 62.7424 246.65 50.4923L254.051 92.0114L254.252 93.1305L255.029 93.9573L266.381 106.026L269.174 108.99L271.967 106.026L283.32 93.9573L284.096 93.1305L284.298 92.0114L291.698 50.4923C327.268 62.7424 327.268 103.324 327.268 103.324V141.828C315.775 157.355 327.268 170.996 327.268 170.996L301.115 210.439L296.497 217.395L294.309 220.692L294.319 220.662ZM240.328 222.457L241.528 224.261C241.458 224.241 241.387 224.221 241.317 224.201L239.925 223.808L240.318 222.457H240.328ZM149.013 124.295C149.013 66.5737 189.675 18.3499 243.918 6.70475C243.817 7.16854 243.797 7.64241 243.867 8.12636L244.513 12.4517C239.401 13.5607 234.37 15.063 229.47 16.8879V16.8677L226.627 17.9869C226.586 18.0071 226.536 18.0171 226.496 18.0373L226.223 18.1482L231.708 31.6585L230.418 32.1627L227.766 33.3625L221.696 20.1042C220.638 20.5881 219.579 21.0418 218.551 21.5863L225.013 34.653C224.862 34.7336 224.711 34.8042 224.56 34.8849C223.511 35.4293 222.453 35.9536 221.414 36.5081C220.244 37.1837 219.075 37.8491 217.915 38.5347L215.959 35.2882C216.373 35.0462 216.796 34.8143 217.21 34.5723L219.821 33.0701L218.278 30.2268L215.586 31.7795C215.163 32.0316 214.729 32.2736 214.296 32.5256C214.064 32.6567 213.852 32.7978 213.63 32.939C213.388 33.0801 213.147 33.2213 212.915 33.3826C212.511 33.6448 212.098 33.9069 211.695 34.159C211.644 34.1892 211.594 34.2195 211.543 34.2497C210.253 35.0765 208.962 35.9032 207.732 36.8106L209.598 39.4623C210.787 38.575 212.048 37.7785 213.298 36.9719L215.344 40.1579L217.099 42.8802C217.532 42.608 217.946 42.3357 218.379 42.0635C218.52 41.9728 218.672 41.882 218.813 41.7913C220.184 40.9545 221.585 40.1781 222.977 39.3715C223.985 38.8372 225.003 38.333 226.022 37.7987C226.163 37.7281 226.314 37.6474 226.455 37.5769C227.312 37.1131 228.22 36.73 229.107 36.3267L231.668 35.1672L232.918 34.6732L233.593 34.4009L234.279 34.1287C236.003 33.4028 237.798 32.8583 239.572 32.2433L238.574 29.1581C237.223 29.6219 235.852 30.0554 234.511 30.5596L230.569 19.9429C235.257 18.1885 240.066 16.7468 244.966 15.678L245.602 19.9731L243.827 20.3865C243.343 20.5075 242.859 20.5982 242.385 20.7293L242.325 20.7494L240.833 21.1729L240.097 21.3846L239.27 21.6165L237.838 22.0198C236.84 22.3122 235.872 22.6752 234.884 22.9978L235.923 26.0628C236.88 25.7503 237.818 25.3974 238.786 25.1151L240.177 24.7219L241.236 28.3515L242.143 31.467C242.889 31.2351 243.646 31.0233 244.402 30.8217C245.299 30.5797 246.206 30.3478 247.124 30.1361L247.85 35.0462C207.5 44.7051 177.495 81.0015 177.495 124.315C177.495 161.096 199.132 192.815 230.367 207.464L235.287 214.895C233.19 214.119 231.123 213.262 229.107 212.314C227.836 211.749 226.596 211.134 225.366 210.509C225.316 210.479 225.265 210.459 225.215 210.428C223.168 209.37 221.152 208.241 219.166 207.081L217.482 209.854C218.722 210.58 219.962 211.285 221.222 211.971L215.758 221.912C211.07 219.341 206.573 216.438 202.298 213.231L200.342 215.822C204.738 219.13 209.376 222.114 214.195 224.766V224.786C215.193 225.36 216.242 225.854 217.26 226.399L223.894 213.413C225.165 214.068 226.445 214.703 227.756 215.278L221.686 228.536C222.745 229.01 223.793 229.494 224.862 229.958L230.528 216.498C233.009 217.547 235.539 218.474 238.1 219.311L236.921 222.91L235.56 222.447C234.612 222.114 233.644 221.821 232.716 221.438L231.577 224.473C232.535 224.876 233.523 225.179 234.511 225.512L235.923 225.985L237.455 226.51L239.018 226.953L240.449 227.357C241.448 227.629 242.436 227.952 243.454 228.163L243.625 227.458L245.904 230.886L245.43 233.033C240.208 231.884 235.066 230.381 230.055 228.506L228.915 231.541C234.067 233.477 239.361 235.029 244.734 236.209C245.299 236.34 245.864 236.491 246.428 236.602L247.85 236.854L248.132 236.905L248.515 234.848L254.373 243.69C194.988 236.32 149.013 185.676 149.013 124.295ZM283.935 243.69L288.189 237.278C288.462 237.227 288.744 237.177 289.016 237.126L288.865 236.249L294.088 228.365L294.733 228.214C295.217 228.093 295.701 228.002 296.175 227.871L296.235 227.851L297.727 227.427L298.463 227.216L299.29 226.984L300.722 226.58C301.72 226.288 302.688 225.925 303.676 225.602L302.637 222.537C301.68 222.85 300.742 223.203 299.774 223.485L298.383 223.878L297.979 222.487L299.996 219.442C301.347 218.978 302.708 218.545 304.039 218.051L307.981 228.667C302.97 230.533 297.828 232.065 292.595 233.154L293.271 236.32C298.665 235.201 303.948 233.628 309.11 231.702V231.722L311.953 230.603C311.994 230.583 312.044 230.573 312.084 230.553L312.357 230.442L306.872 216.932L308.162 216.427L310.814 215.228L316.884 228.486C317.942 228.002 319.001 227.548 320.029 227.004L313.567 213.937C313.718 213.856 313.869 213.786 314.02 213.705C315.069 213.161 316.127 212.636 317.166 212.082C318.336 211.406 319.505 210.741 320.665 210.055L322.621 213.302C322.207 213.544 321.784 213.776 321.37 214.018L318.759 215.52L320.302 218.363L322.994 216.811C323.417 216.559 323.851 216.317 324.284 216.064C324.516 215.933 324.728 215.792 324.96 215.651C325.202 215.51 325.433 215.369 325.665 215.218C326.069 214.955 326.472 214.703 326.875 214.441C326.926 214.411 326.976 214.371 327.037 214.34C328.327 213.514 329.618 212.687 330.848 211.779L328.982 209.128C327.793 210.015 326.532 210.812 325.282 211.618L321.491 205.71C321.058 205.982 320.644 206.254 320.211 206.527C320.07 206.617 319.918 206.708 319.777 206.799C318.406 207.636 317.005 208.412 315.613 209.219C314.605 209.753 313.587 210.257 312.568 210.791C312.427 210.862 312.276 210.943 312.135 211.013C311.278 211.477 310.37 211.86 309.483 212.263L306.922 213.423L305.672 213.917L304.997 214.189L304.311 214.461C303.867 214.653 303.424 214.824 302.97 214.986L307.87 207.595C339.297 193.026 361.095 161.206 361.095 124.285C361.095 80.8906 330.979 44.5337 290.508 34.9655L291.234 30.0857C291.234 30.0857 291.325 30.1059 291.365 30.1159C292.273 30.3378 293.2 30.4991 294.098 30.7814L294.924 27.6458C293.997 27.3635 293.039 27.1921 292.101 26.9602C291.97 26.9299 291.839 26.8997 291.708 26.8694L293.372 15.6276C298.524 16.7669 303.595 18.2591 308.535 20.1143L309.675 17.0795C304.523 15.1437 299.23 13.591 293.856 12.4114V12.4013L294.491 8.12636C294.561 7.62225 294.541 7.12821 294.43 6.64426C348.804 18.1986 389.587 66.4829 389.587 124.295C389.587 185.767 343.471 236.471 283.945 243.69H283.935Z" fill="white"/>
<path d="M357.788 77.7751C357.576 77.3618 357.374 76.9484 357.153 76.5451L367.084 71.1309C369.645 75.8192 371.893 80.6889 373.738 85.7099L376.773 84.5908C374.867 79.4286 372.558 74.4076 369.927 69.5883H369.957L368.394 66.856C368.394 66.8358 368.374 66.8257 368.364 66.8056L368.223 66.5535L355.64 73.9136L354.944 72.7037C354.45 71.877 353.906 71.0704 353.392 70.2537L365.652 62.3592C365.017 61.3913 364.432 60.3932 363.736 59.4555L351.718 67.723C350.942 66.614 350.145 65.5251 349.379 64.4261C348.542 63.3776 347.715 62.2987 346.879 61.2502L349.823 58.8607C350.115 59.2438 350.407 59.6269 350.71 60C351.325 60.7965 351.96 61.5728 352.565 62.3794L355.166 60.4436C354.541 59.6168 353.886 58.8103 353.251 57.9936C352.938 57.6105 352.626 57.2172 352.323 56.8341H352.333C352.152 56.5821 351.94 56.3502 351.748 56.1183C351.597 55.9368 351.456 55.7553 351.305 55.5839C350.982 55.2109 350.659 54.8378 350.337 54.4748C350.307 54.4345 350.276 54.4043 350.236 54.3639C349.238 53.2045 348.24 52.0349 347.161 50.9561L344.802 53.1742C345.85 54.2228 346.818 55.3621 347.786 56.4812L344.923 58.9514L342.473 61.0687C342.815 61.472 343.168 61.8652 343.511 62.2685C343.612 62.3895 343.713 62.5105 343.814 62.6315C344.832 63.8615 345.79 65.142 346.788 66.3821C347.675 67.6525 348.603 68.9027 349.47 70.1831C349.581 70.3444 349.692 70.5158 349.802 70.6772C350.085 71.1208 350.367 71.5745 350.659 72.0181C351.164 72.8146 351.688 73.591 352.172 74.3875L352.837 75.557L353.19 76.172L353.563 76.8274L354.269 78.0474C354.501 78.4607 354.702 78.8842 354.914 79.2976L356.195 81.798L359.108 80.3764L357.788 77.7953V77.7751Z" fill="white"/>
<path d="M361.246 94.2396L361.669 95.4999C361.821 96.014 361.962 96.5282 362.113 97.0424L362.879 99.7445C363 100.178 363.101 100.612 363.202 101.045L363.414 101.953C363.454 102.124 363.494 102.295 363.535 102.467C363.575 102.628 363.605 102.789 363.646 102.951L363.867 103.888C363.968 104.322 364.069 104.766 364.15 105.199L364.644 107.962L367.84 107.417L367.326 104.554C367.245 104.1 367.144 103.646 367.033 103.193L378.124 100.813C378.245 101.358 378.366 101.912 378.477 102.467L379.313 107.175L379.928 111.914C380.039 112.7 380.1 113.497 380.16 114.293L380.342 116.673L383.578 116.451L383.387 114.001C383.326 113.184 383.266 112.368 383.145 111.551L382.52 106.671L381.653 101.821C381.542 101.257 381.421 100.682 381.29 100.118V100.067L380.917 98.4842C380.826 98.091 380.735 97.6978 380.644 97.3046C380.624 97.2038 380.594 97.113 380.574 97.0122L380.513 96.7299L366.358 100.218C366.257 99.7647 366.146 99.3211 366.025 98.8673L365.228 96.0745L379.223 91.971L378.749 90.2974L378.204 88.6439L364.341 93.1708L364.18 92.697C363.787 91.5879 363.454 90.4587 363.02 89.3597L361.72 86.0729C361.659 85.9116 361.599 85.7603 361.528 85.6091L364.986 84.1572C365.561 85.5284 366.116 86.9097 366.65 88.291L369.685 87.1718C369.13 85.7401 368.556 84.3185 367.971 82.907H368.001C367.588 81.8988 367.114 80.9208 366.68 79.9327C366.045 78.5414 365.39 77.15 364.684 75.7889L361.8 77.2609C362.486 78.5817 363.121 79.9226 363.736 81.2737L357.344 84.1875C357.536 84.6109 357.727 85.0344 357.919 85.4578C358.12 85.8914 358.312 86.3148 358.493 86.7585C358.574 86.95 358.655 87.1315 358.725 87.3231L359.976 90.5091C360.389 91.5677 360.722 92.6667 361.095 93.7455L361.256 94.2093L361.246 94.2396Z" fill="white"/>
<path d="M340.093 53.759L348.129 45.7536C351.9 49.5345 355.408 53.5876 358.614 57.8625L361.216 55.9267C357.919 51.5207 354.309 47.3567 350.428 43.4649L350.448 43.4447C349.752 42.7491 349.026 42.0735 348.31 41.398C348.26 41.3476 348.199 41.2972 348.149 41.2367C348.078 41.1661 348.008 41.1056 347.937 41.0351L337.926 51.6316C336.887 50.6435 335.838 49.6756 334.739 48.748L344.298 37.7281C343.41 36.982 342.563 36.1955 341.656 35.4797L332.431 46.7921C331.382 45.9452 330.313 45.1184 329.255 44.2816L326.371 42.2248C326.23 42.124 326.099 42.0332 325.958 41.9324L328.105 38.8169C328.499 39.0993 328.882 39.3816 329.275 39.6538C330.092 40.2486 330.928 40.8032 331.725 41.4182L333.681 38.827C332.864 38.1918 331.997 37.6172 331.16 37.0021C330.757 36.7198 330.354 36.4274 329.95 36.1451C329.587 35.8729 329.214 35.6309 328.841 35.3789C328.761 35.3285 328.69 35.278 328.619 35.2276L327.289 34.3807C327.289 34.3807 327.268 34.3606 327.248 34.3606L325.998 33.554L324.687 32.7171L323.336 31.9408L321.693 34.7336L323.004 35.4898L324.274 36.2964L325.484 37.0727L323.437 40.2486L321.683 42.9709C322.096 43.2431 322.52 43.5052 322.933 43.7674C323.336 44.0295 323.74 44.3017 324.133 44.584C324.264 44.6748 324.395 44.7756 324.526 44.8663L327.309 46.8526C328.569 47.8507 329.839 48.8287 331.08 49.847C331.211 49.9478 331.332 50.0588 331.463 50.1697C331.846 50.5024 332.229 50.8452 332.622 51.1779C333.681 52.0752 334.699 53.0129 335.707 53.9707C336.121 54.3639 336.524 54.7571 336.937 55.1503C338.218 56.4106 339.468 57.7112 340.698 59.0119L343.088 56.824C342.11 55.7855 341.112 54.7571 340.103 53.7388L340.093 53.759Z" fill="white"/>
<path d="M322.822 26.7081C327.51 29.2791 332.007 32.1828 336.282 35.389L338.238 32.7978C333.842 29.4908 329.204 26.5065 324.385 23.8548V23.8347C323.387 23.26 322.338 22.7659 321.32 22.2215L314.686 35.2075C313.415 34.5522 312.135 33.917 310.824 33.3423L316.894 20.084C315.835 19.6102 314.787 19.1262 313.718 18.6624L308.052 32.1223C305.571 31.0738 303.041 30.1462 300.48 29.3094L301.659 25.71L303.02 26.1738C303.968 26.5065 304.936 26.7989 305.864 27.182L307.003 24.1472C306.045 23.7439 305.057 23.4414 304.069 23.1087L302.657 22.6349L301.125 22.1106L299.562 21.667L298.131 21.2637C297.132 20.9914 296.144 20.6688 295.126 20.4571L294.35 23.6028C295.338 23.8044 296.296 24.117 297.263 24.3791L298.655 24.7723L297.586 28.402L296.669 31.5073C301.034 32.8079 305.339 34.3606 309.473 36.2964C310.744 36.861 311.984 37.4761 313.214 38.1012C313.264 38.1314 313.325 38.1516 313.375 38.1818C315.422 39.2405 317.428 40.3697 319.414 41.5292L321.098 38.7565C319.858 38.0306 318.618 37.3248 317.358 36.6392L322.822 26.698V26.7081Z" fill="white"/>
<path d="M198.648 53.5574C197.721 54.5354 196.783 55.5033 195.855 56.4913L193.073 53.9203C193.405 53.5775 193.748 53.2347 194.071 52.8819C194.766 52.1559 195.442 51.4199 196.158 50.7141L193.869 48.4154C193.133 49.1413 192.427 49.9076 191.711 50.6537C191.379 51.0166 191.036 51.3796 190.693 51.7325C190.441 51.9845 190.209 52.2467 189.967 52.5189C189.846 52.66 189.715 52.781 189.594 52.9222C189.302 53.265 189.009 53.6078 188.717 53.9405C188.657 54.0111 188.596 54.0816 188.536 54.1522C187.527 55.3117 186.509 56.4611 185.591 57.681L188.122 59.6975C189.009 58.5078 189.997 57.3987 190.975 56.2796L196.269 60.8872C196.622 60.494 196.964 60.0806 197.317 59.6773C197.448 59.5362 197.579 59.395 197.71 59.2539C198.759 58.1045 199.858 56.9954 200.927 55.8662C202.096 54.7773 203.226 53.6481 204.415 52.5794C204.526 52.4786 204.647 52.3677 204.768 52.2668C205.171 51.924 205.575 51.5812 205.968 51.2283C206.684 50.6234 207.369 49.9781 208.105 49.4034L209.164 48.5767L211.473 46.7619L212.572 45.9855L214.861 44.3522L213.036 41.6703L210.666 43.354L209.537 44.1606L202.772 35.0966C207.047 31.9005 211.554 28.9968 216.242 26.4258L214.699 23.5826C209.87 26.2242 205.232 29.2085 200.836 32.5055L200.816 32.4752L198.396 34.3707C198.396 34.3707 198.336 34.411 198.305 34.4413L198.073 34.6227L207.148 46.0359L206.059 46.8929C205.302 47.4979 204.587 48.1532 203.851 48.7783L194.293 37.7583C193.425 38.5246 192.518 39.2505 191.691 40.0571L201.582 50.7847C200.594 51.7022 199.636 52.65 198.648 53.5675V53.5574Z" fill="white"/>
<path d="M181.569 76.3233C181.004 77.3517 180.49 78.4204 179.945 79.4589L179.713 79.9126L176.326 78.2288C176.548 77.8054 176.769 77.3718 176.981 76.9484C177.455 76.0611 177.868 75.1436 178.383 74.2765L175.549 72.7138C175.025 73.601 174.592 74.5488 174.108 75.4663C173.644 76.3938 173.15 77.3012 172.706 78.2389L172.081 79.6202C172.081 79.6202 172.051 79.6807 172.041 79.7109L171.426 81.062L170.781 82.4836C170.579 82.9574 170.397 83.4414 170.206 83.9253L173.21 85.1453C173.402 84.6815 173.573 84.2076 173.775 83.7439L174.4 82.3727L174.995 81.062L181.377 83.9858C181.76 83.1288 182.143 82.2718 182.587 81.435L182.859 80.9006C183.383 79.8924 183.877 78.864 184.432 77.8659C185.239 76.4745 186.025 75.063 186.872 73.6918C187.225 73.1171 187.578 72.5525 187.951 71.9979C188.687 70.8183 189.473 69.679 190.27 68.5498C190.391 68.3784 190.522 68.1969 190.643 68.0255C191.903 66.2813 193.214 64.5773 194.555 62.8936L192.054 60.8368C191.167 61.9559 190.29 63.0852 189.423 64.2345L180.359 57.4088C183.575 53.1339 187.084 49.0909 190.865 45.3201L188.576 43.0213C184.684 46.903 181.075 51.067 177.768 55.4629L177.747 55.4427C177.052 56.3703 176.396 57.3181 175.721 58.2658L187.628 66.6745C186.801 67.844 185.985 69.0237 185.229 70.2335L172.968 62.3391C172.353 63.317 171.698 64.2749 171.113 65.273L183.615 72.8045C182.93 73.964 182.264 75.1335 181.589 76.3031L181.569 76.3233Z" fill="white"/>
<path d="M170.861 106.943L167.131 106.288L167.383 104.866L167.645 103.384L167.988 101.912L164.822 101.217L164.469 102.729L164.197 104.261L163.935 105.723C163.935 105.723 163.935 105.774 163.924 105.794C163.864 106.147 163.803 106.5 163.733 106.853L163.652 107.316C163.652 107.316 163.652 107.347 163.652 107.367C163.562 107.881 163.471 108.395 163.42 108.92C163.209 110.442 163.037 111.964 162.846 113.477L166.072 113.799C166.264 112.327 166.435 110.845 166.637 109.373L170.367 109.908L173.573 110.371C174.148 106.722 174.823 103.082 175.771 99.5127C175.993 98.6759 176.225 97.839 176.477 97.0123L176.86 95.6612C176.991 95.2176 177.153 94.774 177.304 94.3304L177.737 93.06C177.858 92.7172 177.979 92.3643 178.09 92.0114C178.181 91.7392 178.272 91.4569 178.372 91.1847C178.393 91.1141 178.423 91.0435 178.443 90.973C178.443 90.973 178.443 90.973 178.443 90.9629C178.524 90.7411 178.614 90.5092 178.705 90.2974C178.877 89.8841 179.048 89.4707 179.199 89.0472C179.552 88.1801 179.875 87.303 180.238 86.4359L177.253 85.1655C176.88 86.0629 176.537 86.9703 176.175 87.8676C176.013 88.3011 175.832 88.7246 175.66 89.1581L165.064 85.1857C166.939 80.1849 169.177 75.305 171.748 70.6167L168.915 69.054C166.264 73.8733 163.975 78.8943 162.039 84.0464H162.019C161.616 85.0042 161.313 86.0024 160.97 86.9904C160.97 87.0106 160.96 87.0308 160.95 87.0408C160.92 87.1316 160.89 87.2223 160.859 87.3131L174.662 92.0215L174.219 93.3423C174.067 93.8061 173.896 94.2598 173.765 94.7236L173.372 96.125L159.377 92.0215L158.43 95.3688L172.545 99.0388C171.859 101.64 171.315 104.282 170.851 106.943H170.861Z" fill="white"/>
<path d="M169.409 127.834C169.43 128.419 169.43 129.014 169.46 129.608L169.591 131.373C169.692 132.552 169.752 133.732 169.873 134.902L169.934 135.406L166.173 135.819C166.112 135.345 166.052 134.861 166.022 134.387L165.79 131.383L162.553 131.605L162.785 134.71C162.866 135.749 163.027 136.767 163.148 137.795C163.289 138.824 163.4 139.852 163.552 140.88L164.096 143.945L167.282 143.351L166.748 140.386C166.677 139.913 166.617 139.439 166.556 138.955L170.297 138.43L173.503 137.977L173.13 135.063L173.069 134.579C172.948 133.44 172.888 132.3 172.797 131.161L172.666 129.457C172.636 128.882 172.636 128.318 172.616 127.743V127.249H172.605L172.525 124.315C172.595 122.45 172.585 120.575 172.696 118.709C172.696 118.588 172.716 118.457 172.726 118.336C172.757 117.963 172.787 117.59 172.817 117.217L172.918 115.876L173.019 114.475L173.19 113.083L169.974 112.71L169.792 114.152L169.682 115.604L169.581 116.985L158.268 116.169C158.672 110.845 159.428 105.542 160.567 100.309L157.401 99.6135C156.141 105.381 155.334 111.228 154.951 117.116C154.901 117.772 154.85 118.427 154.84 119.093C154.84 119.093 154.84 119.103 154.84 119.113C154.84 119.214 154.84 119.304 154.84 119.405L169.409 120.02C169.359 121.452 169.349 122.883 169.298 124.315H154.719L154.8 127.784L169.379 127.35V127.854L169.409 127.834Z" fill="white"/>
<path d="M174.43 155.833C174.824 156.942 175.156 158.071 175.59 159.17L176.89 162.457C176.951 162.618 177.011 162.769 177.082 162.92L173.624 164.372C173.049 163.001 172.494 161.62 171.96 160.239L168.925 161.358C169.48 162.789 170.055 164.211 170.639 165.623H170.609C171.022 166.631 171.496 167.609 171.93 168.597C172.565 169.988 173.22 171.38 173.926 172.741L176.81 171.269C176.124 169.948 175.489 168.607 174.874 167.256L181.266 164.342C181.075 163.919 180.883 163.495 180.691 163.072C180.49 162.648 180.298 162.215 180.117 161.781C180.036 161.59 179.955 161.408 179.885 161.217L178.635 158.031C178.221 156.972 177.889 155.873 177.515 154.794L177.354 154.33L176.931 153.07C176.779 152.556 176.638 152.042 176.487 151.527L175.721 148.825C175.6 148.392 175.499 147.958 175.398 147.525L175.186 146.627C175.146 146.446 175.106 146.275 175.065 146.093C175.025 145.932 174.985 145.76 174.955 145.599L174.743 144.661C174.642 144.228 174.541 143.784 174.461 143.351L173.967 140.588L170.77 141.133L171.285 143.996C171.365 144.45 171.466 144.903 171.577 145.357L160.486 147.736C160.365 147.192 160.244 146.637 160.134 146.083L159.297 141.375L158.682 136.636C158.571 135.849 158.51 135.053 158.45 134.256L158.268 131.877L155.032 132.099L155.223 134.549C155.284 135.365 155.344 136.182 155.465 136.999L156.091 141.879L156.958 146.728C157.069 147.293 157.189 147.868 157.321 148.432V148.472L157.694 150.065C157.784 150.459 157.875 150.842 157.966 151.235C157.986 151.336 158.016 151.437 158.036 151.538L158.097 151.82L172.253 148.331C172.353 148.785 172.464 149.229 172.585 149.682L173.382 152.475L159.387 156.579L159.861 158.252L160.406 159.906L174.269 155.379L174.43 155.853V155.833Z" fill="white"/>
<path d="M189.211 184.154C190.048 185.202 190.875 186.281 191.712 187.33L188.767 189.719C188.475 189.336 188.183 188.953 187.88 188.58C187.265 187.784 186.63 187.007 186.025 186.201L183.424 188.136C184.049 188.963 184.704 189.77 185.339 190.586C185.652 190.97 185.965 191.363 186.267 191.746H186.257C186.438 191.998 186.64 192.23 186.842 192.462C186.993 192.643 187.134 192.835 187.295 193.006C187.618 193.379 187.941 193.742 188.263 194.115C188.294 194.156 188.334 194.196 188.364 194.226C189.362 195.386 190.36 196.555 191.439 197.634L193.799 195.416C192.75 194.367 191.782 193.228 190.814 192.109L193.678 189.639L196.128 187.521C195.785 187.118 195.432 186.725 195.089 186.322C194.988 186.201 194.887 186.08 194.787 185.959C193.768 184.729 192.81 183.458 191.812 182.208C190.925 180.938 190.008 179.687 189.13 178.407C189.02 178.246 188.899 178.074 188.788 177.913C188.505 177.469 188.223 177.016 187.931 176.572C187.427 175.775 186.902 174.999 186.418 174.203L185.753 173.033L185.4 172.428L185.017 171.763L184.311 170.543C184.079 170.129 183.878 169.706 183.666 169.293L182.385 166.792L179.472 168.214L180.792 170.795C181.004 171.208 181.206 171.622 181.428 172.025L171.496 177.439C168.936 172.751 166.687 167.881 164.842 162.86L161.807 163.979C163.713 169.141 166.022 174.162 168.653 178.982H168.623L170.186 181.714C170.186 181.734 170.206 181.744 170.216 181.764L170.357 182.016L182.94 174.656L183.636 175.866C184.13 176.693 184.674 177.5 185.188 178.316L172.928 186.211C173.563 187.179 174.148 188.177 174.844 189.114L186.862 180.847C187.638 181.956 188.435 183.045 189.201 184.144L189.211 184.154Z" fill="white"/>
<path d="M209.335 204.298L212.219 206.355C212.36 206.456 212.491 206.547 212.632 206.648L210.485 209.763C210.092 209.481 209.708 209.198 209.315 208.926C208.499 208.331 207.662 207.777 206.865 207.162L204.909 209.753C205.726 210.388 206.593 210.963 207.43 211.578C207.833 211.86 208.236 212.153 208.64 212.435C209.003 212.707 209.376 212.959 209.759 213.201C209.829 213.252 209.9 213.302 209.981 213.352L211.312 214.199C211.312 214.199 211.342 214.219 211.352 214.219L212.602 215.026L213.913 215.863L215.264 216.639L216.907 213.846L215.597 213.09L214.326 212.284L213.116 211.507L216.927 205.609C216.514 205.337 216.091 205.075 215.677 204.813C215.274 204.551 214.871 204.278 214.477 203.996C214.346 203.905 214.215 203.804 214.084 203.714L211.301 201.727C210.041 200.729 208.771 199.751 207.531 198.733C207.4 198.632 207.279 198.521 207.148 198.42C206.764 198.088 206.381 197.745 205.988 197.412C204.929 196.515 203.911 195.577 202.903 194.619C202.489 194.226 202.086 193.833 201.673 193.44C200.392 192.179 199.142 190.879 197.912 189.578L195.523 191.766C196.501 192.805 197.499 193.833 198.507 194.851L190.471 202.857C186.701 199.076 183.192 195.023 179.986 190.748L177.384 192.684C180.681 197.09 184.291 201.254 188.173 205.145L188.152 205.166C188.848 205.861 189.574 206.537 190.29 207.212C190.34 207.263 190.401 207.313 190.451 207.374C190.522 207.444 190.592 207.505 190.663 207.575L200.675 196.979C201.713 197.967 202.762 198.935 203.861 199.862L194.303 210.882C195.19 211.628 196.037 212.415 196.944 213.131L206.17 201.818C207.218 202.665 208.287 203.492 209.345 204.329L209.335 204.298Z" fill="white"/>
<path d="M339.942 195.033C340.87 194.055 341.807 193.087 342.735 192.099L345.518 194.67C345.185 195.013 344.842 195.355 344.519 195.708C343.824 196.434 343.148 197.17 342.432 197.876L344.721 200.175C345.457 199.449 346.163 198.682 346.879 197.936C347.211 197.573 347.554 197.21 347.897 196.858C348.149 196.616 348.381 196.343 348.613 196.081C348.734 195.94 348.865 195.809 348.986 195.668C349.278 195.325 349.571 194.982 349.873 194.65C349.934 194.579 349.994 194.508 350.055 194.448C351.063 193.288 352.081 192.139 352.999 190.919L350.468 188.903C349.581 190.092 348.593 191.201 347.615 192.321L342.321 187.713C341.969 188.106 341.626 188.519 341.273 188.923C341.142 189.064 341.011 189.205 340.88 189.346C339.831 190.496 338.732 191.605 337.663 192.734C336.494 193.823 335.365 194.952 334.185 196.021C334.064 196.132 333.953 196.232 333.832 196.343C333.429 196.686 333.026 197.029 332.632 197.382C331.916 197.987 331.231 198.632 330.495 199.207L329.436 200.034L327.127 201.848L326.028 202.625L323.74 204.258L325.565 206.94L327.934 205.256L329.063 204.45L335.828 213.514C331.553 216.71 327.047 219.613 322.358 222.184L323.901 225.028C328.73 222.386 333.368 219.402 337.764 216.105L337.784 216.135L340.204 214.24C340.204 214.24 340.265 214.189 340.295 214.169L340.527 213.987L331.453 202.574L332.542 201.717C333.298 201.112 334.014 200.457 334.75 199.832L344.308 210.852C345.175 210.086 346.082 209.36 346.909 208.553L337.018 197.825C338.006 196.908 338.964 195.96 339.952 195.043L339.942 195.033Z" fill="white"/>
<path d="M357.021 172.257C357.586 171.228 358.1 170.16 358.645 169.121L358.877 168.667L362.264 170.351C362.042 170.775 361.821 171.208 361.609 171.632C361.135 172.519 360.722 173.436 360.207 174.303L363.041 175.866C363.565 174.979 363.998 174.031 364.482 173.114C364.946 172.186 365.44 171.279 365.884 170.341L366.509 168.96C366.509 168.96 366.539 168.899 366.549 168.869L367.164 167.518L367.81 166.096C368.011 165.622 368.193 165.139 368.384 164.655L365.38 163.435C365.188 163.898 365.017 164.372 364.815 164.836L364.19 166.207L363.595 167.518L357.213 164.594C356.83 165.451 356.447 166.308 356.003 167.145L355.731 167.679C355.207 168.688 354.713 169.716 354.158 170.714C353.352 172.105 352.565 173.517 351.718 174.888C351.365 175.463 351.012 176.027 350.639 176.582C349.903 177.762 349.117 178.901 348.32 180.03C348.199 180.202 348.068 180.383 347.947 180.554C346.687 182.299 345.376 184.003 344.035 185.686L346.536 187.743C347.423 186.624 348.3 185.495 349.167 184.345L358.231 191.171C355.015 195.446 351.506 199.489 347.726 203.26L350.014 205.559C353.906 201.677 357.516 197.513 360.823 193.117L360.843 193.137C361.538 192.21 362.194 191.262 362.869 190.314L350.962 181.905C351.789 180.736 352.605 179.556 353.362 178.346L365.622 186.241C366.237 185.263 366.892 184.305 367.477 183.307L354.975 175.775C355.66 174.616 356.326 173.446 357.001 172.277L357.021 172.257Z" fill="white"/>
<path d="M369.161 128.59C369.211 127.158 369.221 125.727 369.272 124.295H383.851L383.77 120.827L369.191 121.26V120.756C369.161 120.171 369.161 119.576 369.13 118.982L368.999 117.217C368.898 116.038 368.838 114.858 368.717 113.688L368.657 113.184L372.417 112.771C372.478 113.245 372.538 113.729 372.568 114.203L372.8 117.207L376.037 116.985L375.805 113.88C375.724 112.841 375.563 111.823 375.442 110.795C375.301 109.766 375.19 108.738 375.039 107.71L374.494 104.645L371.308 105.239L371.843 108.204C371.913 108.677 371.974 109.151 372.034 109.635L368.294 110.16L365.087 110.613L365.46 113.527L365.521 114.011C365.642 115.15 365.702 116.29 365.793 117.429L365.924 119.133C365.954 119.708 365.954 120.272 365.975 120.847V121.341H365.985L366.065 124.275C365.995 126.14 366.005 128.015 365.894 129.881C365.894 130.002 365.874 130.133 365.864 130.254C365.833 130.627 365.803 131 365.773 131.373L365.672 132.714L365.571 134.115L365.4 135.507L368.616 135.88L368.798 134.438L368.909 132.986L369.009 131.605L380.322 132.421C379.918 137.745 379.162 143.048 378.023 148.281L381.189 148.977C382.449 143.209 383.256 137.362 383.639 131.484C383.689 130.828 383.74 130.163 383.75 129.508C383.75 129.508 383.75 129.497 383.75 129.487C383.75 129.387 383.75 129.296 383.75 129.195L369.181 128.58L369.161 128.59Z" fill="white"/>
<path d="M367.729 141.647L371.459 142.302L371.207 143.724L370.945 145.206L370.602 146.678L373.768 147.374L374.121 145.861L374.393 144.329L374.655 142.867C374.655 142.867 374.666 142.806 374.666 142.786C374.726 142.433 374.786 142.09 374.857 141.738L374.938 141.274C374.938 141.274 374.938 141.243 374.938 141.223C375.028 140.709 375.119 140.195 375.17 139.671C375.381 138.148 375.553 136.626 375.744 135.113L372.518 134.791C372.326 136.263 372.155 137.745 371.953 139.217L368.223 138.683L365.017 138.219C364.442 141.869 363.767 145.508 362.819 149.077C362.597 149.914 362.365 150.751 362.113 151.578L361.73 152.929C361.599 153.373 361.437 153.816 361.286 154.26L360.853 155.53C360.732 155.873 360.611 156.226 360.5 156.579C360.409 156.851 360.318 157.123 360.218 157.395C360.187 157.466 360.167 157.537 360.147 157.607C360.066 157.839 359.976 158.061 359.885 158.283C359.713 158.696 359.542 159.109 359.391 159.533C359.038 160.4 358.715 161.277 358.352 162.144L361.337 163.415C361.71 162.517 362.053 161.61 362.415 160.712C362.577 160.279 362.758 159.855 362.93 159.422L373.526 163.394C371.651 168.395 369.413 173.275 366.842 177.963L369.675 179.526C372.326 174.707 374.615 169.686 376.551 164.534H376.571C376.974 163.576 377.277 162.578 377.62 161.59C377.62 161.569 377.63 161.549 377.64 161.539C377.67 161.448 377.7 161.358 377.731 161.267L363.928 156.559L364.371 155.238C364.523 154.774 364.694 154.32 364.825 153.856L365.218 152.455L379.213 156.559L380.16 153.211L366.045 149.541C366.731 146.94 367.275 144.298 367.739 141.637L367.729 141.647Z" fill="white"/>
</svg>
